<?xml version="1.0" encoding="UTF-8"?>
<svg id="Layer_2" data-name="Layer 2" xmlns="http://www.w3.org/2000/svg" viewBox="0 0 889.68 1296.86">
  <defs>
    <style>
      .cls-1 {
        fill: #1e293b;
      }
    </style>
  </defs>
  <g id="Layer_1-2" data-name="Layer 1">
    <g>
      <path class="cls-1" d="m889.68,786.41c-1.95-4.01-3.9-8.02-5.84-12.03-5.6-11.6-13.4-21.5-23.36-29.62-15.1-12.31-31.48-22.55-49.67-29.7-6.53-2.57-13.32-4.21-20.35-4.73-12.35-.91-23.55,2.78-34.24,8.56-14.23,7.71-25.51,18.8-35.52,31.26-24.08,29.94-41.2,63.73-54.86,99.43-11.18,29.19-19.17,59.27-25.41,89.86-4.05,19.86-7,39.88-7.89,60.13-.61,13.66-.93,27.38-.46,41.04.56,16.33,3.72,32.3,8.17,48.08,5.34,18.98,15.3,34.9,29.8,47.95,12.66,11.4,25.65,22.44,38.72,33.36,7.7,6.43,15.84,12.32,23.59,18.92-.39-.13-.82-.18-1.15-.4-21.97-14.37-43.25-29.63-62.53-47.55-10.1-9.39-19.19-19.53-25.72-31.77-.2-.38-.53-.68-1.07-1.36-.85,1.66-.43,3.21-.22,4.6,1.48,9.79,2.69,19.63,4.68,29.32,3.74,18.19,5.43,36.58,6.68,55.05,1.1,16.28,2.98,32.47,5.51,48.6,1.29,8.26,1.2,16.76,1.53,25.15.31,8.01.36,16.02.51,24.03,0,.55-.16,1.1-.28,1.87h-5.43c-.19-1.31-.45-2.41-.48-3.52-.21-6.84-.22-13.7-.57-20.53-.35-6.83-1.61-13.66-1.38-20.45.37-11.16-2.8-21.84-3.49-32.84-.69-11.05-1.95-22.06-2.64-33.11-.95-15.3-2.95-30.44-6.34-45.39-2.91-12.84-4.1-25.86-4.09-39.03,0-4.02-.57-8.17-1.69-12.03-7.5-25.92-9.57-52.38-7.92-79.16.91-14.81,2.18-29.62,4.03-44.34,2.34-18.64,6.45-36.97,10.88-55.23,8.64-35.66,20.68-70.08,36.84-103.05,9.45-19.28,20.45-37.63,33.35-54.79,10.65-14.17,22.67-26.97,37.91-36.42,9.79-6.06,20.39-9.9,31.6-12.09,2.52-.49,5.21-.07,8.47-.07-1.63-2.68-3.72-3.89-5.74-5.08-10.69-6.24-21.35-12.54-32.14-18.58-27.31-15.29-54.73-30.41-82.04-45.71-17.15-9.6-34.16-19.46-51.31-29.05-6.35-3.55-12.92-6.69-19.41-9.99-1.14-.58-2.35-1.01-3.83-1.63-.92,3.48-1.73,6.69-2.63,9.86-6.9,24.51-14.1,48.95-19.41,73.87-.84,3.93-3.01,6.57-6.39,8.31-7.12,3.66-14.3,7.22-21.46,10.79-4.17,2.08-8.39,4.05-12.53,6.18-1.51.78-2.86,1.87-4.71,3.1,1.4,1.27,2.4,2.27,3.5,3.15,7.18,5.71,14.4,11.38,21.58,17.09,1.48,1.18,2.9,2.45,4.22,3.8,2.98,3.04,3.23,4.87.81,8.49-4.06,6.04-8.3,11.97-12.44,17.96-26.82,38.86-51.76,78.91-75.58,119.67-17.93,30.69-35,61.85-51.35,93.41-.79,1.52-1.47,3.09-2.39,5.05,3.24,0,5.97.21,8.66-.03,20.73-1.86,41.47-3.66,62.18-5.75,27.42-2.76,54.4-8.04,81.15-14.6,2.81-.69,5.74-1.01,8.63-1.15,2.65-.13,3.27.64,3.4,3.37.08,1.6.06,3.22-.12,4.8-1.32,11.86-2.84,23.71-3.96,35.59-.36,3.8-2.42,5.44-5.57,6.24-6.77,1.7-13.55,3.43-20.4,4.81-24.28,4.89-48.72,8.78-73.37,11.23-18.25,1.81-36.55,3.17-54.84,4.55-10.3.78-20.62,1.21-31.19,1.81-.73,1.43-1.49,2.81-2.16,4.24-23.37,49.84-46.75,99.67-70.07,149.53-10.3,22.03-19.9,44.41-30.91,66.07-6.88,13.53-12.29,27.55-17.75,41.62-.89,2.3-1.68,4.66-2.28,7.06-.57,2.28-1.82,2.71-4.12,1.86.08-.93.01-1.92.25-2.83,3.71-14.1,8.12-28.13,14.73-41,11.57-22.54,21.45-45.83,32.27-68.69,18.82-39.75,36.97-79.81,55.49-119.7,25.71-55.36,52.66-110.1,83.04-163.08,27.4-47.78,55.87-94.89,86.93-140.4,5.09-7.46,10.37-14.79,15.49-22.23,2.57-3.73,2.56-4.25-.97-7.25-6.55-5.56-13.15-11.07-19.89-16.39-7.59-5.99-13.96-13.09-20.12-20.48-11.2-13.43-22.42-26.82-31.94-41.53-.14-.21-.46-.3-1.11-.71-1.12,1.77-2.29,3.54-3.4,5.36-19.31,31.77-36.2,64.83-52.55,98.19-19.95,40.72-37.25,82.54-53.44,124.85-13.95,36.46-27.07,73.22-38.38,110.58-9.78,32.31-18.79,64.87-27.78,97.41-9.62,34.82-17.53,70.06-24.81,105.43-3.43,16.67-6.11,33.52-10.15,50.05-4.12,16.86-6.36,34.04-9.98,50.96-.09.42-.27.82-.53,1.59-1.1.11-2.32.24-3.83.39-.1-1.12-.35-1.97-.22-2.75,1.29-7.76,2.63-15.5,3.97-23.25.7-4.02,1.49-8.02,2.1-12.05.6-4.02,1.81-7.81,3.16-11.65,1.48-4.2,1.8-8.82,2.72-13.23,5.71-27.51,11.35-55.04,17.19-82.53,6.53-30.75,14.41-61.17,22.72-91.48,12.01-43.82,25.16-87.3,40.26-130.17,13.79-39.15,28.4-77.98,44.75-116.15.39-.91.72-1.84.42-3.16-1.71,2.52-3.5,4.99-5.1,7.58-18.54,29.97-36.86,60.08-55.63,89.91-13.81,21.94-28.05,43.6-42.37,65.21-12.47,18.82-25.32,37.38-37.99,56.06-3.68,5.42-7.46,10.78-10.92,16.34-5.94,9.53-9.65,19.91-10.89,31.09-2.4,21.71-4.76,43.43-7.04,65.16-1.64,15.64-3.13,31.3-4.71,46.94-1.6,15.93-3.12,31.88-4.87,47.79-.65,5.91-2.04,11.73-2.75,17.63-1.63,13.59-3.06,27.2-4.58,40.81-.05.42-.25.82-.47,1.48h-3.93c.2-2.02.37-3.72.55-5.42,1.05-9.85,1.98-19.71,3.18-29.54.86-7.05,2.23-14.03,3.09-21.08,1.21-9.97,2.22-19.96,3.19-29.95,1.66-16.95,3.24-33.92,4.82-50.88,1.63-17.55,3.1-35.11,4.85-52.65,1.17-11.73,2.61-23.45,4.11-35.14,1.46-11.36,6.08-21.53,12.3-31.02,4.63-7.06,9.4-14.04,14.23-20.97,1.29-1.85,1.58-3.42.83-5.61-8.14-23.58-14-47.78-18.8-72.21-3.37-17.14-5.98-34.44-8.45-51.74-2.93-20.54-3.02-41.25-2.41-61.95.82-27.87,4.14-55.47,9.33-82.85.17-.91.18-1.84-.4-2.93-1.47,4.22-3.01,8.42-4.41,12.67-12.33,37.48-23.32,75.35-33.24,113.53-9.57,36.79-18.04,73.83-24.9,111.23-3.54,19.31-7.37,38.56-10.77,57.9-2.41,13.74-4.36,27.55-6.45,41.34-1.64,10.78-3.2,21.56-4.77,32.35-.46,3.17-.76,6.35-1.23,9.52-.44,3.04.57,5.73,1.79,8.4,7.07,15.53,15.07,30.57,24.39,44.87,6.04,9.27,12.33,18.38,18.5,27.57.55.82,1.03,1.68,1.81,2.94-4.07-2.78-19.67-22.74-26.87-34.29-7.67-12.31-14.38-25.16-20.94-38.36-.28,2.23-.6,4.45-.85,6.68-1.38,12.29-2.87,24.56-3.12,36.96-.29,14.32,3.24,27.65,9.18,40.5,2.81,6.08,5.66,12.15,8.23,18.33,2.27,5.45,5.25,10.64,5.93,16.73.27,2.39,1.65,4.65,2.4,7.01,2.48,7.76,4.91,15.53,7.33,23.3.12.37-.03.83-.1,2.21-.83-1.97-1.33-3.11-1.79-4.25-3.64-9.05-7.88-17.91-10.74-27.19-3.87-12.52-11.27-23.25-16.29-35.14-2.92-6.92-5.64-13.92-8.49-20.99,0,1.36-.03,2.75,0,4.14.33,14.71,1.3,29.43.84,44.11-.49,15.79,2.85,30.92,5.78,46.18.35,1.81.54,3.64.85,5.78h-6c-2.53-13.14-5.04-26.2-7.55-39.26-2.4,12.85-1.84,25.9-2.49,39.2h-6.11c0-1.75-.06-3.32,0-4.89.56-12.52,1.05-25.04,1.8-37.54.21-3.42,1.53-6.77,1.9-10.19,2.33-21.58,4.44-43.18,6.83-64.74,1.35-12.14,3.04-24.25,4.67-36.36,1.55-11.53,3.17-23.05,4.86-34.55,1.4-9.49,2.91-18.96,4.45-28.42,2.21-13.62,4.41-27.25,6.77-40.85,2.39-13.75,4.9-27.49,7.48-41.2,2.88-15.3,5.63-30.64,8.94-45.85,5.16-23.76,10.15-47.59,16.3-71.11,8.35-31.95,17.52-63.7,26.74-95.41,4.51-15.51,9.86-30.78,15.05-46.09,1.22-3.61,1-6.58-.74-9.95-3.61-6.98-6.91-14.12-10.15-21.29-1.13-2.5-1.91-5.2-2.45-7.89-.43-2.1-1.51-2.16-3.09-1.76,1.66-.93,2.33-2.18,2.17-4.21-.61-7.75,1.4-14.98,4.91-21.8,2.72-5.29,5.7-10.44,8.54-15.67.5-.92.88-1.9,1.71-3.72-10.35,9.57-19.91,18.46-29.54,27.28-1.38,1.26-1.76,2.56-1.18,4.25,1.82,5.33,3.64,10.67,5.47,16.06,2.83-.8,5.44-1.55,8.04-2.29-1.33.84-2.65,1.69-3.98,2.51-.87.53-2.1.8-2.58,1.57-2.11,3.36-5.74,4.32-8.93,5.94-9.87,5-19.77,9.94-29.7,14.81-1.97.97-3.08,2.14-3.61,4.43-5.23,22.82-10.92,45.53-15.86,68.41-4.05,18.75-7.48,37.64-10.79,56.54-5.81,33.15-10.29,66.5-13.89,99.95-1.93,17.96-3.51,35.95-4.91,53.96-1.51,19.45-2.84,38.92-3.88,58.41-1.61,30.42-2.03,60.86-.65,91.31.92,20.22,1.92,40.44,2.89,60.66.41,8.58,1,17.16,1.16,25.75.14,7.54-.39,15.09-.27,22.63.15,9.17.7,18.34.98,27.51.04,1.41,1.02,3.81-1.24,3.89-2.71.11-1.18-2.31-1.27-3.67-.2-2.9-.35-5.81-.45-8.72-.21-6.11-.3-12.23-.58-18.34-.2-4.36-.75-8.7-.89-13.06-.15-4.64.21-9.29-.01-13.93-.87-18.18-1.74-36.37-2.89-54.53-2.2-34.93-2.25-69.89-1.35-104.85.79-31.02,3.03-61.96,5.65-92.89,3.42-40.24,8.44-80.27,14.86-120.11,4.25-26.42,9.5-52.69,14.9-78.9,4.16-20.2,9.31-40.2,13.89-60.31.88-3.88,2.77-6.25,6.51-7.9,11.05-4.88,21.92-10.17,32.85-15.3.65-.3,1.26-.67,2.32-1.24-.44-1.53-.81-3.02-1.31-4.47-1.46-4.26-2.89-8.54-4.51-12.74-1-2.58-.29-4.46,1.61-6.23,2.45-2.28,4.78-4.7,7.23-6.98,10.11-9.44,20.28-18.82,30.35-28.32,1.55-1.46,2.66-3.38,3.98-5.09-.17-.27-.35-.54-.52-.81-1.31.64-2.63,1.24-3.92,1.92-34.45,18.35-69.38,35.72-104.99,51.69-13.48,6.05-23.45,15.48-30.53,28.21-8.49,15.27-13.88,31.71-17.98,48.6-6.77,27.87-9.82,56.19-10.23,84.86-.52,35.79,2.9,71.29,7.03,106.76,2.74,23.58,5.58,47.16,7.98,70.77,1.88,18.54,3.26,37.13,4.67,55.72,1.22,16.12,2.32,32.25,3.2,48.39.85,15.56,1.44,31.14,1.95,46.72.49,14.85.86,29.71,1.01,44.56.1,9.45-.42,18.9-.43,28.35-.01,12.53.21,25.06.31,37.59.01,1.28-.12,2.57-.19,4.17h-6.16c-1.2-11.31-.24-22.63-.81-34.49-11.33-2.39-22.67-4.78-34.16-6.09-11.47-1.3-23.02-1.85-34.53-2.99,5.58-1.08,11.09-2.36,16.84-1.78,2.74.28,5.53.21,8.3.2,8.22,0,16.17,1.7,24.08,3.68,6.31,1.58,12.63,3.17,19.41,4.88.49-6.53.96-12.96,1.44-19.28-5.92-4.01-12.01-6.4-18.29-8.27-11-3.27-22.08-6.31-33.1-9.51-2.48-.72-4.88-1.73-7.14-3.32,4.85.83,9.74,1.5,14.55,2.53,5.11,1.09,10.19,2.38,15.21,3.83,4.88,1.42,9.78,2.89,14.45,4.84,4.64,1.94,9.02,4.51,13.9,6.99.07-1.55.22-2.94.19-4.32-.63-24.61-.9-49.24-2.04-73.83-1.29-27.93-3.22-55.83-5.14-83.72-2.32-33.86-6.1-67.59-9.97-101.31-4.23-36.92-7.67-73.91-7.62-111.12.04-28.49,2.83-56.72,8.49-84.65,3.36-16.58,7.77-32.87,14.45-48.47,3.8-8.87,8.3-17.33,14.16-25.03.24-.31.36-.71.35-1.24-6.87,5.32-13.01,11.35-17.74,18.69-8.11,12.59-13.59,26.38-18.34,40.49-6.14,18.27-9.89,37.08-12.68,56.12-3.26,22.22-4.29,44.6-5.42,67-.89,17.65-.22,35.25.39,52.86.2,5.91-.3,11.66-2,17.25-3.08,10.09-3.98,20.24-1.56,30.57,2.45,10.49,1.06,20.81-1.21,31.12-2.3,10.44-3.11,21.02-2.31,31.68.4,5.36,1,10.74,2,16.01,1.47,7.74.24,15.05-2.56,22.23-1.69,4.34-3.49,8.63-5.21,12.96-3.58,9.03-4.66,18.2-2.2,27.79,1.4,5.47,2.2,11.13,2.9,16.75.73,5.91-.39,11.6-3.19,16.91-2.38,4.51-4.9,8.94-7.16,13.5-4.24,8.54-5.69,17.4-2.45,26.65,1.52,4.32,1.21,8.31-2.1,11.77-2.58,2.69-3.54,5.85-3.12,9.58.46,4.09-.78,7.84-3.32,11.03-4.48,5.64-5.6,11.99-3.05,18.51,3.6,9.2,3.36,18.03-.06,27.21-1.55,4.15-1.71,8.82-2.5,13.25-.15.83-.32,1.65-.51,2.6H0c.08-1.49-.03-2.76.24-3.96,1.25-5.68,2.31-11.43,3.98-16.99,1.76-5.84,1.8-11.49-.31-17.13-1.66-4.42-2.43-8.95-2.74-13.63-.17-2.59.17-4.91,1.65-7.06.58-.84,1-1.81,1.67-2.56,3.43-3.82,4.69-8.25,4.11-13.31-.39-3.41.77-6.37,3.27-8.67,2.83-2.59,3.47-5.78,2.36-9.17-4.14-12.69-.64-24.09,5.57-35.1.72-1.27,1.38-2.57,2.2-3.78,5.06-7.44,5.99-15.65,4.46-24.28-.99-5.59-2.09-11.16-3.2-16.72-1.51-7.55-.04-14.79,2.31-21.9,1.51-4.56,3.35-9.01,5.16-13.46,2.86-7.03,3.94-14.12,2.65-21.77-2.13-12.67-2.94-25.48-1.3-38.31.81-6.35,1.83-12.69,3.03-18.98,1.24-6.53,1.49-13.14.22-19.56-2.38-12.02-1.78-23.77,1.62-35.43,1.91-6.54,2.11-13.17,1.78-19.91-.96-19.8-.92-39.59.07-59.41.95-19.07,2.28-38.1,4.95-57.01,3.6-25.47,9.45-50.4,19.36-74.22,4.48-10.77,9.2-21.52,16.95-30.41,4.47-5.13,9.54-9.79,14.72-14.23,4.23-3.62,9.31-5.92,14.88-6.97,1.41-.27,2.79-.86,4.09-1.49,30.06-14.43,60.16-28.77,90.13-43.38,11.91-5.8,23.54-12.16,35.25-18.37,1.34-.71,2.61-1.87,3.46-3.12,8.82-13.02,17.56-26.11,26.3-39.19,2.32-3.47,2.23-3.46-.44-6.74-11.12-13.63-19.95-28.61-26.65-44.89-1.3-3.16-3.49-6.06-5.69-8.73-5.05-6.14-9.06-12.79-11.87-20.25-.84-2.24-2.49-4.28-4.11-6.09-4.92-5.5-8.68-11.61-11.26-18.55-1.31-3.52-3.36-6.76-5.08-10.13-6.29-12.3-9.88-25.46-12.4-38.96-.5-2.71-.92-5.48-1.87-8.05-2.14-5.83-2.78-11.86-3.21-17.99-1.12-16.13-2.18-32.26-3.7-48.35-1.4-14.78-3.37-29.51-5.06-44.26-.27-2.31-.41-4.64-.56-6.97-.42-6.58,1.03-12.22,8.11-15.12-.83-3.99-1.63-7.82-2.42-11.64-2.42-11.69-4.78-23.4-7.26-35.08-1.25-5.86-3.16-11.38-6.93-16.3-3.79-4.94-5.52-10.82-5.51-17.18,0-1.61-.41-3.65-1.43-4.78-8.98-9.93-10.48-21.37-7.32-33.87.18-.71.22-1.46.48-2.13,2.12-5.48,1.76-10.45-1.29-15.78-4.48-7.8-3.6-16.28-1-24.6,4.76-15.24,13.42-28.01,24.9-38.96,1.77-1.69,3.56-3.37,5.48-5.19-1.5-2.35-2.85-4.48-4.66-7.32,2.42.5,4.03.63,5.47,1.18,2.35.91,4.31.33,6.08-1.16,10.87-9.11,23.12-15.63,37.1-19.4-.18-2.17-.35-4.12-.53-6.29,1.29-.53,2.46-1.07,3.67-1.5,12.87-4.53,24.85-10.62,35.47-19.37,20.35-16.77,44.39-25.23,69.87-30.05,7.26-1.37,14.74-1.76,22.14-2.13,18.67-.94,37.37-.56,55.76,2.71,17.54,3.12,34.54,8.34,49.5,18.67,1.1.76,2.64.87,3.97,1.28,3.77,3.56,7.54,7.13,11.31,10.69-2.71-3.65-5.8-6.88-9.01-9.98-.51-.5-1.57-.43-2.38-.62-4.43-3.51-8.62-7.4-13.36-10.42-4.7-2.99-9.97-5.08-14.92-7.76,7,.87,13.46,3.45,19.72,6.49,7.18,3.48,14.01,7.72,21.3,10.93,8.48,3.73,15.43,9.3,21.44,16.09,8.34,9.45,13.9,20.31,15.29,33.03,1.84-18.53-8.72-30.84-21.08-42.38,11.88,3.43,20.26,11.35,26.96,21.26,6.71,9.92,9.38,21.07,8.83,33.12,4.74-4.81,6.09-10.5,5.43-16.8-.39-3.75-.9-7.49-1.38-11.44,6.27,5.01,8.83,19.69,6.12,34.42.55.28,1.13.73,1.78.88,14.65,3.41,26.22,11.85,35.94,22.83,13.69,15.46,22.79,33.34,26.56,53.78,2.32,12.6,1.16,24.92-2.62,37.09-5.06,16.26-10.27,32.47-14.96,48.83-2.64,9.22-4.38,18.7-6.51,28.07-.13.55-.06,1.15-.09,1.73.25.23.44.54.68.59,7.43,1.69,11.22,6.85,13.08,13.79,3.81,14.22,5.5,28.5,2.36,43.18-5.19,24.28-12.15,47.99-22.11,70.76-2.03,4.63-4.57,9.16-7.58,13.21-6.62,8.93-15.54,13.38-26.88,12.16-.85-.09-1.7-.13-2.59-.19-7.1,22.09-10.33,44.51-9.82,67.22,3.76,1.54,7.16,2.76,10.4,4.31,7.31,3.5,11.64,9.87,15.72,16.52,6.01,9.8,11.92,19.68,18.31,29.23,4.69,7.01,10.16,13.49,15.11,20.33,2.28,3.16,4.08,6.66,6.22,9.92.75,1.15,1.66,2.46,2.82,3.03,32.09,15.67,62.53,34.33,93.59,51.87,25.36,14.32,50.86,28.39,76.18,42.78,7.83,4.45,15.08,9.9,22.91,14.34,7.84,4.44,15.86,8.68,24.16,12.14,19.32,8.04,36.29,19.72,52.48,32.69,8.28,6.63,14.6,15,19.99,24.09,1.16,1.96,2.45,3.83,3.68,5.75v15.74ZM530.44,197.08c.75.85,1.5,1.7,2.25,2.55l.65-.81-2.98-1.66c-2.34-1.73-4.68-3.47-7.02-5.2-.65-.89-1.2-1.89-1.98-2.65-8.21-7.92-15.1-16.8-20.85-26.7-3.71-6.38-8.23-12.29-12.57-18.28-1.4-1.94-3.36-3.47-5.06-5.18,1.12,2.38,2.94,4.1,4.28,6.14,5.01,7.64,10.03,15.29,14.74,23.13,4.08,6.79,8.83,12.96,14.8,18.16,2.15,1.87,4.48,3.54,6.73,5.29,1.68,2.63,4.04,4.34,7.02,5.21Zm-351.36-6.82c-2.99,2.74-3.09,6.57-3.81,10.18-1.04,2.39-1.72,4.84-1.6,7.39.37.04.73.08,1.1.12.13-2.54.26-5.07.4-7.61,1.28-3.38,2.56-6.77,3.84-10.15,1.14-2.01,2.29-4.02,3.43-6.03-1.87,1.68-3.61,3.44-3.35,6.1Zm-6.25-32.42c-.76-.8-1.51-1.6-2.27-2.4-.21.29-.42.58-.63.87.99.48,1.99.96,2.98,1.44.19.35.3.86.6,1.03,6.06,3.52,12.51,3.43,19.07,2.01-1.5-.29-3.03-.39-4.54-.27-5.31.42-10.24-1.26-15.21-2.68Zm116.46-86.96h4.12c0-.14-.02-.29-.03-.43-1.37.14-2.75.29-4.12.43-.67-.4-1.31-1.06-2.03-1.16-2.58-.36-5.19-.63-7.79-.75-7.46-.34-14.93-.72-22.11,2.05,2.28-.11,4.53-.62,6.79-.66,6.96-.12,13.93-.08,20.89-.03,1.42.01,2.84.36,4.28.55Zm299.16,141.45c.38-.74,1.05-1.47,1.09-2.22.3-5.64.8-11.3.59-16.92-.25-6.79-1.54-13.47-4.36-19.78-.17.97-.14,1.92.03,2.84.84,4.41,2.21,8.78,2.47,13.22.44,7.63.2,15.29.27,22.98l-.4,5.69c.31-.01.63-.02.94-.04-.21-1.92-.42-3.84-.63-5.75ZM226.4,74.1c1.38-.44,2.78-.85,4.15-1.33,10.98-3.87,22.13-6.91,33.8-7.86,17.54-1.44,34.17,1.4,49.7,9.91,1.09.6,2.23,1.09,3.34,1.64-1.37-1.8-3.07-3.03-4.88-4.06-9.36-5.36-19.65-7.97-30.16-9.65-4.84-.77-9.9-1.3-14.74-.79-13.67,1.44-26.69,5.64-39.45,10.62-.67.26-1.12,1.08-1.69,1.62-1.21.15-2.43.3-3.64.46.07.28.13.56.2.84,1.12-.46,2.25-.92,3.37-1.38Zm125.7-31.71c3.05,1.17,6.2,2.12,9.12,3.55,4.33,2.13,8.5,4.59,12.73,6.91,1.67,1.75,3.32,3.51,5,5.24,1.58,1.62,3.2,3.21,4.8,4.81-2.7-3.99-5.16-8.18-9.89-9.96-.49-.66-.84-1.5-1.47-1.96-12.18-9.06-25.77-14.42-40.95-15.67-3.01-.25-6.01-.61-9.01-.93,13.16,3.75,26.39,7.14,37.4,15.74,10.78,8.42,20.42,17.98,27.99,29.53.12-.53.12-.96-.04-1.31-6.65-14.49-16.89-25.6-31.03-33.07-1.6-.85-3.05-1.98-4.58-2.97,0,0-.07.09-.07.09Zm-91.86,74.33c-1.35.45-2.78.75-4.05,1.38-7.66,3.85-15.18,8-22.94,11.62-5.24,2.44-10.75,4.33-16.24,6.17-6.66,2.24-13.52,1.23-20.33.8-3.99-.25-7.73-1.17-11.15-3.31-1.14-.72-2.39-1.26-3.59-1.89,6.5,6.82,14.96,8.82,23.77,10.58-2.8.41-5.6.82-9.41,1.38,8.25.87,15.25.27,22.13-2.09,6.7-2.3,12.59-6.01,18.24-10.1,6.85-4.95,13.82-9.63,21.57-13.09.72-.32,1.28-1.02,1.91-1.55,1.15-.28,2.29-.56,3.44-.84-.11-.28-.23-.56-.34-.83-1.01.59-2.02,1.18-3.02,1.77Zm194.31-62.27c.25,1.92.5,3.84.76,5.76.35-.08.69-.17,1.04-.25-.62-1.81-1.25-3.62-1.87-5.44-.18-1.14-.29-2.31-.56-3.43-1.91-7.85-5.93-14.54-11.5-20.27-3.31-3.4-6.94-6.49-11.1-10.34,5.69,2.3,10.98,3.53,15.21,6.86,4.21,3.32,8.32,6.88,11.91,10.85,3.49,3.86,6.39,8.29,9.32,12.63,3.05,4.52,5.02,9.6,5.77,14.97.72,5.15.83,10.38,1.21,15.58,1.14-3.84,2.26-7.72,2.16-11.57-.45-16.76-7.65-30.18-20.81-40.51-6.14-4.82-13.37-7.64-20.14-11.32-9.08-4.94-18.88-7.61-29.07-8.86-10.54-1.3-21.08-1.75-31.75-1.68-10.93.07-21.71.7-33.35,2.14,2.93.93,5.49.43,7.66,2.07-21.52,1.02-41.64,5.66-60.15,16.3.62.24,1.16.17,1.69.05,8.52-2.01,17.13-3.33,25.92-3.05,13.92.44,27.46,3,40.59,7.57,15.48,5.39,29.39,13.54,40.89,25.28,8.26,8.43,14.05,18.24,13.28,30.73-.04.63.07,1.26.11,1.9,3-10.1,1.23-19.55-3.81-28.53-5.02-8.94-12.59-15.29-21.05-20.78,7.54,2.32,13.9,6.36,19.12,12.28,8.29,9.41,13.4,20.02,12.82,32.93,1.07-7.8.67-15.37-2.99-22.44-11.14-21.5-29.17-33.78-52.41-39.05-2.42-.55-4.87-1-7.31-1.49.06-.3.11-.6.17-.89,1.97.26,3.95.5,5.92.77,21.46,2.86,38.35,13.89,52.25,29.83,8.13,9.32,12.28,20.38,11.78,32.94-.09,2.34-.27,4.68-.4,7.01,2.48-5.13,3.43-10.45,2.7-16.07-1.56-12.15-6.73-22.49-15.39-31.13-.91-.91-1.69-1.94-2.53-2.91.25-.18.51-.35.76-.53,13.56,8.82,22.77,20.72,25.79,37.08.62-4.14.06-8.09-1.23-11.91-4.52-13.3-13.14-23.57-25.36-29.97-11.17-5.85-23.17-10.12-34.84-15.02-6.12-2.57-12.55-3.8-19.17-3.72-10.62.14-21.24.48-31.86.73-1.16.03-2.33,0-3.49,0,5.18-2.15,10.52-2.44,15.9-2.55,5.53-.11,11.07-.37,16.6-.32,5.27.05,10.53.41,15.8.63.03-.31.07-.61.1-.92-5.33-3.07-11.72-2.15-17.47-4.04.32-.36.48-.71.71-.76.7-.16,1.43-.34,2.13-.28,5.2.44,10.41.86,15.6,1.43,10.8,1.17,21.23,3.59,30.65,9.35.74.45,1.59.71,2.38,1.08,3.54,1.66,7.27,3,10.57,5.05,8.51,5.31,15.2,12.62,21.42,20.39.76.95,1.56,1.86,2.34,2.79-.59-2.52-1.74-4.63-3.05-6.66-4.78-7.4-10.21-14.31-17.65-19.13-4.73-3.06-9.98-5.33-15.08-7.8-2.21-1.07-4.58-1.83-6.92-2.62-3.22-1.08-6.49-2.06-10.51-3.33,1.26-.36,1.65-.6,2-.55,7.03,1.07,14.13,1.85,21.07,3.37,7.76,1.69,14.67,5.74,21.27,9.91,10.68,6.74,18.83,15.96,23.82,27.75.34.81,1.12,1.43,1.69,2.14Zm-213.61,612.05s.09.08.09.08c.7-2.04,1.21-4.17,2.13-6.12,9.78-20.72,21.16-40.51,34.77-58.98,3.63-4.93,2.45-10.07-3.07-13.43-.67.9-1.41,1.78-2.04,2.73-11.22,16.84-22.51,33.64-33.62,50.56-7.11,10.84-13.85,21.9-19.34,33.69-5.13,11-5.03,21.99,0,32.92,3.65,7.93,7.54,15.76,11.36,23.61.39.81,1.03,1.5,1.93,2.77,1.25-3.94,2.44-7.21,3.26-10.58.27-1.09-.11-2.61-.73-3.61-3.7-6.03-6.13-12.53-7.85-19.36-1.13-4.5-1.84-9.14-4.64-13.09-.49-.69-.36-2.34.15-3.1.84-1.27,2.49-1.16,3.49-.22,1.45,1.35,2.98,2.88,3.72,4.65,1.23,2.93,2.01,6.08,2.69,9.2,2.04,9.41,5.56,18.16,11.91,25.45,4.01,4.6,8.58,8.71,12.95,12.99,7.6,7.44,15.41,14.71,21.45,23.53,2.2,3.21,3.9,6.8,5.58,10.33.61,1.27.51,2.89.73,4.34-.28.09-.57.18-.85.26-3.63-8.81-9.61-15.92-16.35-22.34-8.96-8.53-18.24-16.73-27.4-25.06-.25-.23-.71-.22-1.41-.41-2.21,8.62-4.88,16.97-6.45,25.51-3.89,21.21-6.32,42.62-7.71,64.16-1.45,22.46-.8,44.84,1.66,67.18,2.85,25.95,7.27,51.62,13.7,76.93.22.85.61,1.65.92,2.48.57-21.51,3.95-42.48,8.11-63.31,4.61-23.08,9.81-46.05,14.83-69.05,2.18-9.97,4.45-19.96,10.42-28.52,3.08-4.41,6.41-8.66,9.84-12.81,5.57-6.73,11.27-13.36,17.03-19.92,1.55-1.77,1.96-3.28.83-5.43-2.03-3.86-3.9-7.81-5.74-11.77-5.82-12.54-11.54-25.14-17.42-37.65-3.41-7.26-3.96-14.83-2.98-22.62.31-2.45.72-4.9,1.17-7.33,2-10.65,5.93-20.72,9.81-30.76,1.88-4.87,2.82-9.38,1.5-14.69-2.53-10.16-4.26-20.52-6.39-30.79-.4-1.92-1.09-3.78-1.83-6.27-1.42,1.68-2.4,2.73-3.26,3.87-13.61,18.09-25.15,37.44-35.25,57.68-.42.84-1.14,1.53-1.72,2.29ZM447.83,132.69c1.11.34,2.2.73,3.32,1,4.23,1,8.45,2.07,12.72,2.89,3.84.74,5.6-.12,7.3-3.4-14.87.11-28.12-5.84-41.98-9.59l14.4,8.12c-3.54-1.25-7.24-2.19-10.6-3.82-7.12-3.46-14.38-6.17-22.81-6.41,3.75,2.03,7.19,3.89,10.62,5.75-6.95-1.13-13.49-3.3-20.33-4.19,1.54.89,3.17,1.44,4.76,2.09,1.56.64,3.09,1.38,4.63,2.07-13.44-2.93-26.93-3.34-40.41-3.93,4.4,1,8.81,1.99,13.21,2.99-5.26-.14-10.42-.47-15.59-.83-5.19-.36-10.38-.73-15.53-1.1,2.15,1.56,4.33,3.15,6.52,4.75-.13.15-.25.29-.38.44-6.05-1.39-12.1-2.77-18.15-4.16-.06.21-.12.42-.18.63,2.86,1.05,5.71,2.1,8.57,3.14-.05.18-.1.36-.15.53-5.64-.6-11.27-1.2-16.91-1.79-.06.29-.12.58-.17.88,3.08,1,6.16,1.99,9.25,2.99-2.85.33-5.55-.07-8.25-.21-10.03-.51-20.05-1.03-30.08-1.37-9.45-.32-18.63,1.32-27.53,4.69,8.66-2.46,17.44-1.46,26.19-1.22-39.13,3.24-62.07,21.04-71.05,35.69,3.97-2.69,7.38-5.66,11.44-7.63-4.61,4.28-9.48,8.19-14.28,12.19-11.24,9.36-9.27,6.62-14.2,19.65-3.7,9.77-5.28,20.05-6.49,30.42,2.67-9.03,5.78-17.86,10.36-26.97-3.05,14.4-5.99,28-8.78,41.62-1.69,8.25-3.78,16.49-4.57,24.84-1.15,12.31-1.09,24.72-1.94,37.06-.75,10.88-2.05,21.72-3.06,32.58-1.02,11.01-2.32,22-2.89,33.03-.95,18.28,2.74,36.22,4.8,54.27.1.87.44,1.72.76,2.9,1.14-6.94,1.29-13.62,3.8-19.9v30.03c.31.03.63.07.94.1.9-5.04,1.8-10.07,2.7-15.11.32-.02.65-.04.97-.06.82,3.64,1.92,7.24,2.39,10.93,1.08,8.5,1.83,17.04,2.78,25.56.25,2.25.73,4.47,1.1,6.7.36-2.7-.04-5.28-.12-7.88-.15-4.94-.17-9.88-.14-14.82,0-.84.58-1.67,1.22-3.39.83,8.54,1.52,16.07,2.34,23.58.15,1.38.79,2.7,1.21,4.06-.57,3.65-.41,7.23,1.24,11.73-.49-4.59-.86-8.15-1.24-11.72-1.11-5.69.8-11.06,1.68-16.54.8,7.1,1.6,14.21,2.4,21.31.97-3.36,1.11-6.68,1.24-9.99.12-3.16.02-6.34.54-9.45.3.01.6.02.9.04.28,4.12.57,8.25.91,13.11.76-1.3,1.09-1.86,1.89-3.24.65,5.44,1.21,10.09,1.77,14.74.15-.02.3-.04.45-.05.16-2.57.33-5.14.49-7.7,2.01,7.53,2.59,15.23,3.76,23.72.89-3.46,1.59-6.2,2.3-8.94l.35.05c-.21,4.64-.41,9.28-.62,13.92.26.02.51.03.77.05.71-6.66,1.42-13.31,2.12-19.97l.78.05c-.33,7.62-.65,15.24-.98,22.86l.32.02c1.01-3.25,2.02-6.5,3.03-9.75.13.06.26.12.39.18-.49,4.69-.98,9.38-1.46,14.06.3.08.61.16.91.24,2.41-11.31,6.3-21.81,15.53-29.39-5.22,6.96-9.83,14.21-11.53,22.95,2.72-4.59,4.37-9.93,9.43-12.82-7.45,8.14-10.42,17.84-10.21,28.66.6-1.11.94-2.31,1.26-3.51.74-2.8,1.28-5.67,2.24-8.39,1.26-3.59,1.4-3.54,5.44-4.89-1.91,3.26-3.94,6.44-3.8,10.39,2.29-4.51,4.3-9.13,8.03-13.59-2.43,6.76-4.56,12.71-6.7,18.65.14.04.27.07.41.11,2.22-3.13,4.43-6.25,6.65-9.38.3.15.59.3.89.45-2.76,3.96-5.01,8.1-5.19,13.32q3.03-4.64,5.23-5.25c-1.2,5.77-2.46,11.78-3.71,17.8.21.05.42.11.63.16,2.41-3.6,4.82-7.2,7.23-10.8.12.1.25.21.37.31-1.27,3.46-2.54,6.93-3.82,10.39,1.64-1.84,2.59-3.95,3.61-6.01,1.95-3.94,1.97-3.93,4.27-5.66-4.31,7.2-4.62,15.07-5.65,22.85,1.67-5.33,3.83-10.34,7.54-14.6-3.28,8.01-5.57,16.13-4.12,25.87,2.17-7.78,2.98-15.12,8.15-21.28-.51,4.04-.96,7.51-1.4,10.97l.58.16c.93-1.46,1.87-2.92,2.8-4.39-.89,6.48-3.59,12.49-3.22,19.07,1.68-3.08,2.14-6.7,5-9.17-.6,2.33-1.19,4.66-1.79,6.98.2.08.4.15.6.23,1.63-3.24,3.25-6.48,4.88-9.72-1.39,7.6-3.85,14.98-1.3,22.72.51-6.17,1.6-12.09,5.62-17.21v5.53c.18.06.36.13.54.19,1.34-2.29,2.67-4.57,4.01-6.86.27.08.54.16.81.24-1.66,7.75-5.08,15.48-.85,23.36.09-9.29,2.43-17.94,6.94-26.9-.57,5.52-1.13,10.2-1.53,14.89-.63,7.55-.68,11.09,1.86,14.84-1.3-9.37-.06-18.32,4.28-26.78.32,2.47.74,5,.23,7.32-1.08,4.87-.26,9.54.58,14.46,1.9-10.79,3.78-15.44,7.29-17.99-1.27,8.66-3.75,17.24-.17,25.82.11-7.56.24-15.08,3.77-22.1-.21,2.56-.43,5.12-.64,7.68.27.03.55.06.82.1,1.46-3.82,2.93-7.64,4.39-11.47.18.08.36.17.53.25-1.13,5.82-2.26,11.64-3.38,17.46.27.06.55.12.82.18,1.49-5.38,2.77-10.85,6.24-16.34-.61,3.82-1.17,6.82-1.54,9.83-.35,2.89-.61,5.8-.73,8.7-.12,2.89-.03,5.79-.03,8.69.89-3.13,1.44-6.27,2.07-9.4.63-3.14,1.28-6.28,2.03-9.39.7-2.91,1.03-5.96,2.79-8.57.34,1.5.33,2.93.34,4.37.01,1.31.02,2.62.09,3.93.07,1.28-.18,2.65.72,4.63.97-3.43,1.68-5.96,2.39-8.49.48,1.44.34,2.75.35,4.05,0,1.23.17,2.46.26,3.68.28,0,.57,0,.85.01.24-2.67.47-5.33.8-9.01,1.83,7.81,1.55,14.68.56,21.59,3.58-8.14,3.71-16.81,3.96-25.51,3.76,7.94,3.96,16.3,3.84,24.75,3.09-6.52,2.33-13.59,2.67-20.7.68,1.26,1.19,2.2,2,3.69.29-1.65.46-2.63.73-4.17,1.19,9.74,2.26,18.8.78,27.93,4.07-9.46,4.51-19.44,4.08-29.56.3,0,.61.01.91.02.39,3.25.77,6.5,1.24,10.39.27-1.91.45-3.24.71-5.11,2.2,5.16.64,10.06,1.39,14.79,2.27-5.65,2.66-11.57,3.17-17.5,2.37,5.23,2.32,10.66,1.8,16.17,3.47-7.37,3.22-15.27,2.97-23.17.32-.03.64-.06.96-.09.88,4.25,1.77,8.51,2.65,12.76l.67-.1v-10.68c4.09,7.93,4.26,15.57,2.21,23.41,4.8-8.58,2.47-17.35.53-26.1.28-.09.56-.17.84-.26,1.72,4.11,3.45,8.23,5.39,12.88,1.23-5.76-.98-10.68-1.07-15.75,4.51,8.56,5.24,17.53,2.96,26.94.89-1.03,1.51-2.11,1.95-3.25,3.3-8.6,3.25-17.52,2.4-26.56,2,3.39,2.67,7.08,2.86,10.84.18,3.64.04,7.3.04,11.6,3.82-9.98,2.54-19.48,1.31-29.17,1.22,3.15,2.45,6.3,3.67,9.45.11-.03.21-.06.32-.09l-1.14-7.25c.3-.05.6-.1.9-.15.66,3.54,1.32,7.07,2,10.68.2-1.57.38-3.06.57-4.55,2.45,6.34,1.81,12.75,1.04,19.16,3.81-8.9,2.41-17.93.97-27.12,1.45,3.13,2.91,6.26,4.36,9.39.11-.01.22-.03.33-.04-.84-4.33-1.68-8.65-2.67-13.77,4.98,7.44,5.91,15.01,5.44,22.92,2.34-4.51,2.72-9.21,2.52-14.04-.21-4.9-3.26-8.73-5.19-12.98.25-.13.51-.25.76-.38,2.31,3.29,4.61,6.57,7,9.98.88-5.4-1.73-9.9-2.94-14.7,4.3,6.73,5.95,14.27,6.97,22.06,3.11-10.81.3-21.06-3.54-31.21.27-.09.53-.19.8-.28,2.36,3.41,4.72,6.83,7.08,10.24.18-.04.36-.09.54-.13l-2.62-15.18c3.57,6.08,3.38,13.17,5.38,20.05,1.29-10.06.86-19.56-1.4-29.07,1.77,2.56,3.34,5.16,4.51,7.94,1.21,2.88,2.03,5.92,3.02,8.89.24-.06.48-.12.73-.18-1.67-6.85-3.35-13.7-5.02-20.55.15-.08.29-.15.44-.23,1.34,2.87,2.69,5.74,4.08,8.71.3-.68.52-1.18.81-1.85.61,1.16,1.14,2.2,1.74,3.34.3-.75.52-1.3,1.02-2.53.89,3.29,1.57,5.79,2.25,8.28.33-9.31-5.07-16.78-7.83-25.12,6.67,8.78,11.21,18.44,12.51,29.57,1.38-7.61-.84-14.99-.71-22.49.97,4.02,1.93,8.04,2.9,12.06.28-.02.57-.04.85-.07.28-6.96-.15-13.99,1.91-20.81v28.89c.29.03.58.06.87.09,1.46-15.63,7.59-30.48,7.19-46.5.49.72,1.03,1.48,1.04,2.26.06,4.93.96,10.11-.22,14.74-2.08,8.1-2.94,16.3-4.08,24.5-.1.69-.01,1.4-.01,2.1.2,0,.41,0,.61.01,1.01-5.8,2.02-11.6,3.03-17.39.25.04.49.09.74.13-.22,2.53-.45,5.05-.67,7.58,4.01-12.33,4.89-25.1,6.17-37.8.46-4.53.65-9.1,2.62-13.31-.18,3.19-.9,6.35-.89,9.5.03,10.5-.5,20.94-1.63,31.38-.45,4.15-.07,8.39-.07,12.58,2.14-11.05,3.76-22.12,5.07-33.22,1.74-14.67,7.59-27.93,13.67-41.15-1.27,4.88-2.89,9.65-4.36,14.46-1.49,4.87-2.96,9.75-4.23,14.68-1.22,4.76-2.18,9.59-3.26,14.38.11,0,.22.02.33.02,6.1-14.77,12.2-29.54,18.3-44.31-2.06,9.19-5.42,18.05-7.14,27.23-1.76,9.34-1.9,18.97-2.76,28.48,1.2-3.34,1.95-6.73,2.4-10.16,1.51-11.59,4.19-22.87,8.33-33.82,1.23-3.26,2.2-6.63,3.15-9.99,1.77-6.31,1.8-12.77,1.42-19.27,2.04,3.87,2.78,7.93,2.3,12.24-.48,4.19-.92,8.39-1.32,12.6-.64,6.66-1.22,13.33-1.8,20.03-.46,2.28-.93,4.57-1.39,6.85.37.04.74.07,1.12.11.06-2.36.12-4.71.17-7.07,2.13-1.39,2.07-3.74,2.31-5.8,1.05-8.82,1.91-17.65,2.86-26.48.1-.91.31-1.81.47-2.72,2.27,7.86.7,15.49-.59,23.18,3.53-9.57,7.26-19.07,6.6-29.61.19.8.37,1.6.75,3.22.29-3.88.51-6.81.73-9.73.33.04.66.08.99.12,1.42,13.77-.09,27.17-5.76,40.06,8.05-15.33,12.59-31.47,11.59-49.02,1.12,3.78,2.05,7.56,2.34,11.38.85,11.26-.68,22.33-3.05,33.33-.94,4.36-1.53,8.8-2.27,13.2.33.06.67.12,1,.18,1.42-7.6,2.98-15.19,4.23-22.82,1.27-7.74,2.61-15.49,3.24-23.29.61-7.62.36-15.3.49-22.96h.56c1.12,9.02,2.23,18.04,3.27,26.46,3.37-14.76,2.29-30.18.73-45.64,3.15,7.18,4.75,14.69,5.81,22.37.58-8.35-.67-16.49-1.87-24.73,1.04,3.24,2.09,6.47,3.13,9.71.28-.05.56-.1.85-.15-.58-5.46-1.16-10.92-1.73-16.39-.09-.86-.55-2.25-.2-2.49,2.6-1.82.87-4.11.89-6.19.02-2.18,0-4.36,0-6.55.14,0,.28,0,.43-.01,1.01,5.07,2.02,10.14,3.04,15.22.3-.06.6-.11.9-.17-.55-4.02-.99-8.06-1.68-12.05-1.7-9.91-3.22-19.81-3.05-29.93.2-12.23.2-24.47.03-36.71-.18-12.81-3.4-24.71-11.02-35.27-3.4-4.72-6.49-9.67-9.66-14.56-2.83-4.36-5.03-9.03-6.77-13.94,4.64,5.87,8.52,12.33,14.59,16.93-7.97-12.25-14.29-25.19-17.92-39.39,4.84,8.11,8.36,17.04,14.64,24.57-3.7-9.95-7.27-19.55-10.84-29.15.31-.15.62-.29.93-.44,3.91,7.23,6.87,15.06,12.72,21.11-2.32-6.58-4.87-13.03-7.45-19.48-3.24-8.11-6.43-16.24-9.77-24.3-3.72-8.96-9.09-16.9-15.36-24.27-1.2-1.41-2.42-2.24-4.45-2.12-8.27.5-16.19-1.5-24.01-3.88-1.03-.31-1.88-1.2-2.81-1.83Zm-54.13,590.55c-7.53-7.91-14.67-15.36-22.65-21.93-.67-.55-2.26-.55-3.15-.17-2.93,1.27-5.73,2.85-8.59,4.28-4.36,2.18-8.73,4.34-13.1,6.5,2.79-2.87,5.88-5.21,9.09-7.34,3.33-2.21,6.79-4.23,10.22-6.34-1.18-1.63-2.08-2.88-3.11-4.3,2.4-1.6,4.59-1.28,6.43-.09,3.29,2.12,6.7,4.22,9.48,6.92,11.17,10.87,22.13,21.95,33.13,33,3.15,3.17,6.15,6.49,9.55,10.09.89-1.73,1.6-3.13,2.32-4.53,9.6-18.47,18.92-37.11,28.89-55.38,14.16-25.97,30.28-50.77,46.27-75.65,9.6-14.94,18.93-30.07,28.07-45.31,5.02-8.38,9.03-17.3,11.04-26.98,1.1-5.29,2.05-10.6.98-16.03-1.05-5.33-3.85-7.65-10.26-8.01.38,1.44.36,3.03,1.14,3.93,1.77,2.05,1.73,4.15,1.19,6.52-1.28,5.68-4.44,10.43-7.62,15.13-10.32,15.25-22.26,29.17-35.05,42.37-17.35,17.9-35.71,34.72-54.44,51.16-23.11,20.29-47.23,39.32-71.28,58.44-7.63,6.07-14.99,12.48-22.4,18.82-3.31,2.83-5.31,6.51-6.37,10.73-1.63,6.5-3.38,12.97-4.9,19.49-1.03,4.46-2.56,8.67-5.17,12.42-2.57,3.7-5.06,7.49-7.94,10.95-9.59,11.54-19.26,23-29.03,34.39-7.45,8.68-12.54,18.46-15.11,29.65-4.69,20.41-9.8,40.73-14.33,61.18-3.15,14.19-6.03,28.46-8.28,42.81-1.91,12.2-2.86,24.56-4.01,36.87-.31,3.29-.35,6.79.4,9.97,2.41,10.19,5.24,20.29,7.94,30.41.31,1.15.84,2.25,1.49,3.97,1.6-2.29,2.77-3.93,3.9-5.6,3.1-4.59,6.21-9.17,9.26-13.78,17.69-26.71,35.77-53.18,52.96-80.21,24.62-38.71,48.41-77.95,72.92-116.73,8.19-12.95,16.08-25.99,22.12-40.08.46-1.07,1.01-2.1,1.47-3.17.22-.52.32-1.09.58-1.96-4.02-3.99-7.26-8.8-12.2-12.94-2.76,2.98-5.2,5.67-7.72,8.29-2.52,2.63-5.05,5.26-7.69,7.76-2.65,2.5-5.42,4.87-8.18,7.23-2.77,2.37-5.59,4.67-8.4,6.99-2.81,2.31-5.57,4.71-8.49,6.87-2.75,2.04-4.94,4.93-8.24,6.19-.21-.27-.43-.53-.64-.8,16.27-14.49,32.53-28.97,49.01-43.65-1.41-1.53-2.97-3.24-4.56-4.92-1.56-1.65-3.16-3.28-4.71-4.88-25.25,16.2-52.05,28.49-78.11,42.19-.17-.3-.34-.61-.51-.91,25.32-14.54,50.64-29.08,76.36-43.85Zm-86.4,40.66c7.25-8.78,13.84-16.84,15.95-27.6,1.04-5.28,2.77-10.42,3.77-15.71,1.48-7.84,5.6-13.99,11.46-19.09,5.49-4.78,11.05-9.49,16.71-14.06,18.82-15.17,37.95-29.96,56.49-45.47,26.36-22.06,52.25-44.68,75.71-69.9,12.12-13.03,23.45-26.69,32.93-41.81,1.44-2.3,2.33-4.58,2.08-7.37-1.11-12.21-1.17-24.43.1-36.64,1.11-10.7,2.15-21.41,3.33-32.11.46-4.19,1.21-8.34,1.83-12.51-1.29,2.56-1.91,5.23-2.66,7.87-2.66,9.37-4.77,18.95-8.19,28.03-8.15,21.67-21.64,39.82-38.76,55.26-21.17,19.1-44.44,35.34-69.05,49.62-18.83,10.92-38.37,20.21-60.46,22.56-12.34,1.31-24.62,2.33-36.81-1.27-5.88-1.74-11.71-3.38-16.63-7.33-1.75-1.4-3.93-2.26-6.29-3.57-.06,1.17-.18,1.73-.1,2.26,1.13,7.34,2.11,14.7,3.46,22,4.04,21.86,8.22,43.7,12.37,65.54,1.74,9.15,2.8,18.33,1.64,28.65-2.84-18.01-7.52-34.57-12.94-51.04-3.93,8.9-7.42,17.8-9.73,27.12-1.95,7.84-1.9,15.53,1.27,23.13,5.6,13.43,11,26.95,16.58,40.39,1.72,4.15,3.72,8.18,5.96,13.07Zm239.42-238.41c-.28.02-.55.04-.83.06-.14.82-.31,1.63-.41,2.46-1.12,9.8-3.68,19.21-8.47,27.82-6.29,11.31-12.68,22.58-19.54,33.55-11.65,18.63-23.62,37.06-35.64,55.45-2.14,3.27-2.37,5.68.12,8.88,9.29,11.94,18.31,24.09,27.51,36.11,3.52,4.6,7.22,9.06,10.95,13.72,2.29-1.17,4.35-2.23,6.41-3.28,11.94-6.04,23.78-12.3,35.9-17.98,3.77-1.77,5.4-4.07,6.32-7.9,4.34-18.09,8.93-36.12,13.43-54.17,1.97-7.9,3.96-15.8,5.86-23.72,1.27-5.28.01-10.1-3.02-14.51-1.07-1.56-2.2-3.08-3.4-4.54-9.34-11.38-17.81-23.38-25.54-35.91-3.27-5.31-6.43-10.7-9.63-16.05Zm-153.94,495.79c2.37,0,3.94.08,5.49-.01,12.05-.74,24.11-1.38,36.15-2.31,14.79-1.15,29.6-2.22,44.34-3.92,16.03-1.85,32.04-4.08,47.95-6.74,14.05-2.35,27.96-5.55,41.95-8.28,2.36-.46,3.45-1.44,3.68-3.95.94-10.14,2.12-20.25,3.15-30.38.26-2.57.25-5.17.4-8.4-53.62,14.19-107.87,20.17-163.09,23.34-6.5,13.2-13.15,26.71-20.02,40.66Zm157.19-716.11c-2.03,4.09-3.78,8.1-5.95,11.86-2.16,3.74-3.48,7.69-3.99,11.91-.52,4.33-.93,8.68-1.19,13.03-.69,11.76-1.21,23.54-1.93,35.3-.95,15.39-2.01,30.76-3.08,46.14-.11,1.65.35,2.83,1.7,3.7,5.57,3.59,11.43,4.98,17.77,2.23,4.56-1.98,8.08-5.29,10.56-9.48,2.74-4.62,5.3-9.38,7.41-14.31,7.48-17.43,12.48-35.66,16.71-54.11,2.21-9.63,4.63-19.29,3.27-29.32-.88-6.48-1.78-12.97-2.98-19.4-.47-2.52-1.62-4.97-2.77-7.3-1.34-2.72-3.59-4.35-6.68-5.1-5.35-1.3-9.89.37-13.7,3.78-4.5,4.04-8.58,8.54-13.03,13.04-.46-.42-1.24-1.15-2.13-1.98Zm-166.83-220.23c-3.3-12.26-11.14-21.23-20.94-28.29-13.34-9.61-28.42-15.26-44.89-16.68-18.93-1.63-37.52-.07-55.47,6.63-.82.31-1.65.59-2.43.97-.77.39-1.49.89-2.23,1.34,47.08-14.74,86.43-4.69,117.13,35.57-2.28-8.75-7.37-15.36-13.06-21.68,9.99,4.81,16.69,12.76,21.89,22.13Zm-27.59,9.96c-.22.37-.06.22-.09.13-.22-.68-.43-1.37-.74-2.01-3.41-7.11-8.82-12.65-14.6-17.78-8.31-7.36-17.87-12.45-28.87-14.53-5.49-1.04-11.01-1.87-16.52-2.79.05-.32.11-.65.16-.97,9.44,1.5,18.89,3,28.33,4.5-.36-.76-.82-1.13-1.34-1.32-12.7-4.64-25.83-5.57-39.16-4.29-7.09.68-14.14,1.8-21.24,2.46-9.04.84-17.6,3.47-26.12,6.38.72.2,1.39.15,2.06.03,5.98-1.08,11.92-2.47,17.94-3.19,12.89-1.53,25.76-2.06,38.71.04,21.05,3.42,39.29,12.18,54.53,27.16,2.24,2.2,4.7,4.17,6.96,6.16Zm-156.18,6.94c14.29,3.43,28.69,3.93,43.13.93,11.76-2.44,23.64-3.07,35.59-2.01,7.41.65,14.69,2,21.48,5.28.48.23,1.05.28,1.57.42-7.71-5.41-16.2-8.72-25.32-10.18-12.22-1.96-24.34-.81-36.39,1.68-10.53,2.18-21.05,4.57-31.9,4.46-2.73-.03-5.45-.37-8.17-.56Zm58.82-46.27c.14.31.29.62.43.93,15.25-4.62,30.73-6.1,46.58-4.42,16.1,1.7,29.81,8.78,42.86,17.86-3.46-3.64-7.07-7.01-10.98-10-13.13-10.04-27.93-15.18-44.49-13.36-8.06.89-16.01,2.99-23.92,4.92-3.61.88-6.99,2.68-10.48,4.06Zm271.47,66.91c2.58,2.94,5.35,5.74,7.7,8.86,15.39,20.36,28.76,41.65,30.36,67.84,4.32-23.39-14.52-66.54-38.06-76.69Zm-17.11-2.12c5.02,4.71,10.22,9.15,14.89,14.1,4.68,4.96,9.13,10.21,13.14,15.71,4.01,5.5,7.46,11.42,10.96,17.28,3.4,5.71,5.72,11.9,7.6,18.31-.51-4.19-1.31-8.29-2.44-12.3-3.3-11.66-9.84-21.63-16.72-31.4-5.1-7.24-11.62-12.97-18.98-17.8-2.63-1.73-5.38-3.26-8.45-3.9Zm-213.32-7.12c-.81-1.03-.98-1.42-1.27-1.6-9.22-5.41-19.15-8.47-29.87-8.56-11-.1-21.72,1.73-32.28,4.77-6.1,1.76-12.3,3.17-18.45,4.74.85.58,1.66.7,2.47.74,7.22.4,14.16-1.11,21.07-2.99,4.2-1.15,8.45-2.82,12.71-2.92,15.18-.39,30.57-1.86,45.63,5.83Zm-110.88,260.76c.39-.04.78-.08,1.17-.11,0-1.44-.07-2.89.01-4.33.54-10.16.79-20.35,1.8-30.47.6-6,.37-11.45-3-16.64-1.49-2.29-2.35-5-3.54-7.49-.41-.86-.98-1.65-1.47-2.47l-.89.23c4.33,20.2,4.23,40.83,5.92,61.29Zm408.06-216.72c-8.16-24.6-22.73-43.71-46.28-55.21,19.65,14.88,34.85,33.49,46.28,55.21ZM236.08,80.73c.11.31.22.63.33.94,1.01-.07,2.03-.05,3.02-.24,9.84-1.82,19.61-4.17,29.52-5.34,7.01-.82,14.22-.31,21.32.12,3.84.23,7.62,1.53,11.43,2.35-11.81-5.82-24.25-8.28-37.15-5.57-9.61,2.02-18.99,5.12-28.47,7.73Zm309.39,36.81c14.09,15.23,24.95,32.57,33.41,51.46-2.83-22.56-16.93-37.79-33.41-51.46Zm-349.17,13.36c11.82,2.9,22.31,1.28,32.2-3.33,10.21-4.76,20.06-10.27,30.07-15.45-3.52-.04-6.52,1.27-9.5,2.7-6.67,3.2-13.28,6.57-20.1,9.42-10.11,4.21-20.75,6.32-32.67,6.66Zm-15.03,176.42c3.82.09,5.58,2.2,6.79,5.05.9,2.14,1.95,4.21,2.98,6.29.33.66.78,1.26,1.18,1.89.63-4.08,1.06-8,.5-11.78-.48-3.21-1.89-6.34-3.31-9.31-.78-1.63-2.31-3.12-4.58-2.57-2.19.53-2.87,2.32-3.12,4.26-.24,1.85-.27,3.72-.43,6.16Zm282.24,194.34c3.03-15.43,8.63-30.3,10.21-46.05-6.95,14.56-10.19,29.95-10.21,46.05Zm70.6-321c-4.71-11.96-11.81-22.37-18.94-32.75-.51-.75-1.63-1.08-2.46-1.61-.27.28-.54.56-.81.84,7.4,11.17,14.81,22.34,22.21,33.52Zm42.41,10.47c.5-13.87-5.95-32.73-13.79-41.5,2.47,6.14,5.55,12.83,7.87,19.78,2.36,7.1,3.98,14.46,5.92,21.72Zm3.21-52.11c7.41,13.65,12.88,28.11,17.74,42.82-2.29-15.77-8.25-30.03-17.74-42.82Zm-99.83,335.3c4.61-15.31,7.41-29.98,6.82-35.33-3.1,5.48-7.22,26.18-6.82,35.33Zm-21.16-428.15c4.06,11.82,7.69,23.64,6.58,36.35,2.56-12.99,1.25-25.3-6.58-36.35Zm87.92,139.07c-2.11-7.84-13.72-26.51-18.76-30.3,6.25,10.1,12.35,19.95,18.76,30.3Zm-338.65-17.37c-10.78,6.38-17.94,15.71-22.46,27.21,5.57-10.64,13.54-19.31,22.46-27.21Zm239.79-43.51c8.03,3.29,15.44,3.31,22.81,0h-22.81Zm-223.23-30.98c.01.29.02.57.04.86,9.86.39,19.54-1.37,29.29-2.32-.03-.35-.06-.7-.09-1.04-9.75.83-19.5,1.67-29.24,2.5Zm-44.32,77.46c-6.49,5.8-9.12,12.87-10.18,20.99,3.4-7.02,6.68-13.78,10.18-20.99ZM373.58,17.35c-.11.45-.23.91-.34,1.36,5.63,1.51,11.26,3.01,16.89,4.52.08-.28.16-.57.23-.85-5.23-2.94-10.98-4.07-16.79-5.03Zm131.72,427.15c-.35-.19-.69-.38-1.04-.58-1.73,7.99-3.47,15.99-5.2,23.98l.85.19c1.79-7.87,3.59-15.73,5.38-23.6ZM195.41,222.71c1.51-6.11,3.02-12.22,4.52-18.33-2.82,5.79-4.58,11.84-4.52,18.33Zm328.14,210.9c-.34-.07-.68-.13-1.02-.2-1.5,5.82-3,11.64-4.51,17.46.27.07.55.14.82.21,1.57-5.82,3.13-11.65,4.7-17.47Zm-71.04,81.05c.2.07.41.14.61.21.31-1.69.69-3.38.91-5.09.2-1.58.28-3.19.33-4.78.05-1.55.01-3.1.01-4.66-.28.02-.55.03-.83.05-.35,4.76-.69,9.51-1.04,14.27Zm41.25-47.63l.85.17c.9-4.57,1.8-9.15,2.7-13.72l-.74-.15c-.94,4.57-1.87,9.14-2.81,13.7ZM213.69,121.18c-.03-.33-.06-.65-.09-.98-3.76.61-7.53,1.22-11.29,1.84.05.31.1.62.15.94,3.74-.6,7.49-1.19,11.23-1.79Zm-4.09,338.6c.22-.15.43-.31.65-.46-.58-2.73-1.17-5.47-1.75-8.2-.27.06-.54.12-.8.18.64,2.83,1.27,5.66,1.91,8.48Zm284.3-.5c-.35-.07-.69-.14-1.04-.21-.4,2.05-.8,4.1-1.21,6.15.32.06.63.13.95.19.43-2.04.86-4.08,1.3-6.13Zm-24.6,31.85c.18.03.35.07.53.1.38-1.75.76-3.49,1.14-5.24l-.67-.13c-.33,1.76-.67,3.51-1,5.27Zm8.09-467.79c-.21.24-.43.47-.64.71,1.02.78,2.04,1.56,3.07,2.33.14-.18.28-.36.42-.55-.95-.83-1.89-1.66-2.84-2.49Zm-156.81,54.22c-.19.18-.38.37-.57.55.74.52,1.48,1.04,2.21,1.56.1-.13.21-.27.31-.4-.65-.57-1.31-1.14-1.96-1.71Zm-153.03,76.05c.16-.13.32-.26.47-.39-.52-.64-1.04-1.29-1.57-1.93-.17.14-.33.27-.5.41.53.64,1.06,1.27,1.59,1.91Z"/>
      <path class="cls-1" d="m264.76,1085.01c-5.74,9.69-12.57,13.15-20.63,10.87-6.4-1.81-10.81-8.3-10.45-15.39.36-7.13,6.45-14.62,12.91-15.88,7.88-1.53,14.03,2.37,18.68,12.14,3.41.36,7.07.75,10.72,1.13-3.04,1.9-6.39.89-9.63,1.92,2.82.65,5.63,1.31,8.45,1.96-.03.2-.06.4-.09.61h-8.23c-.05.18-.09.36-.14.55,2.08.46,4.17.87,6.23,1.39,2.21.56,4.4,1.23,6.59,1.85-.06.29-.11.57-.17.86-4.73-.66-9.46-1.33-14.24-1.99Zm-25.28-3.65c.05,5.45,3.99,9.53,9.27,9.58,5.57.05,10.57-5.02,10.55-10.69-.03-5.63-4.3-10.38-9.23-10.25-5.53.15-10.63,5.62-10.58,11.36Z"/>
      <path class="cls-1" d="m248.38,1211.28h11.36c.02.22.05.44.07.66-2.6.59-5.2,1.17-7.8,1.76-.03.22-.05.44-.08.66,2.92.2,5.84.39,8.76.59,0,.23,0,.46,0,.69-4.13.46-8.26.93-12.61,1.42-.64,1.33-1.26,2.78-2,4.17-2.46,4.63-6.15,7.66-11.44,8.46-11.39,1.73-18.69-8.57-15.94-19.37.42-1.66,1.15-3.3,2.01-4.79,3.02-5.23,7.57-8.07,13.67-7.54,6,.52,10.19,3.87,12.59,9.39.52,1.19.88,2.44,1.41,3.92Zm-5.93,2c-.16-3.56-1.34-6.8-4.69-8.66-2.99-1.65-6.13-1.58-9.07.38-4.79,3.2-6.45,10.55-3.46,15.5,1.52,2.52,3.73,3.94,6.77,4.02,5.49.15,10.41-5.04,10.45-11.25Z"/>
      <path class="cls-1" d="m686.68,1238.73c4.47,3.38,8.92,6.79,13.43,10.13,2.2,1.63,4.39,3.34,6.79,4.64,14.12,7.64,29.08,13.33,44.03,19.06,12.63,4.85,25.17,9.92,37.81,14.75,7.2,2.76,14.5,5.24,21.75,7.86.6.22,1.18.51,1.77.77l-.19.91c-1.76-.14-3.58-.05-5.28-.45-17.81-4.11-34.19-12.21-51.3-18.28-14.01-4.97-27.7-10.7-40.99-17.32-5.06-2.52-10.04-5.4-14.55-8.78-4.62-3.46-8.64-7.73-12.9-11.67-.35-.33-.53-.84-.79-1.27l.43-.37Z"/>
      <path class="cls-1" d="m659.98,1071.18c40.14,24.07,82.9,41.43,128.55,51.68-30.1,1.11-109.96-31.03-128.55-51.68Z"/>
      <path class="cls-1" d="m489.62,1150.07c0,2.01-.04,4.03,0,6.04.59,24.04-.36,48.06-1.37,72.07-.23,5.38-.34,10.78-.82,16.13-.29,3.29-1.53,6.5-1.75,9.79-.71,10.6-1.15,21.23-1.66,31.84-.14,2.9-.18,5.8-.29,8.7-.06,1.78-.08,1.78-3.06,1.85,0-5.06-.18-10.14.04-15.19.42-9.46.94-18.91,1.69-28.35.31-3.87,1.69-7.65,1.93-11.52.91-14.54,1.58-29.09,2.29-43.63.77-15.85,1.49-31.7,2.24-47.55.25-.06.5-.13.75-.19Z"/>
      <path class="cls-1" d="m761.51,817.08c4.08-1.73,8.02-3.98,12.26-5.09,11.95-3.14,24.08-5.45,36.44-6.42,14.19-1.12,28.18.38,42.07,3.17,2.24.45,4.46.96,6.63,1.86-16.33-1.68-32.59-3.87-49.04-2.25-16.33,1.6-32.33,4.93-48.36,8.74Z"/>
      <path class="cls-1" d="m481.95,743.7c3.93-2.54,4.85-2.66,7.04-.21,5.85,6.53,12.47,12.17,19.47,17.39,1.38,1.03,2.48,2.19,1.49,3.99-.76,1.38-2.86,1.6-4.68.6-.63-.35-1.25-.76-1.79-1.24-5.78-5.09-11.6-10.13-17.28-15.32-1.55-1.42-2.7-3.28-4.26-5.21Z"/>
      <path class="cls-1" d="m27.13,1196.93c12.91.83,26.19,1.69,38.8,2.51-9.87,3.62-32.78,2.17-38.8-2.51Z"/>
      <path class="cls-1" d="m255.72,465.72c-2.05,2.55-3.06,5.97-6.47,7.58-.1-8.17-.27-16.03-4.74-23.49-5.09-8.51-7.18-18.09-5.17-28.12.48-2.39,1.29-4.81,2.45-6.95,4.98-9.14,12.4-16.31,19.51-23.76-6.8,12.52-16.66,23.55-18.91,39.11,3.31-5.54,6.17-10.34,9.04-15.15.27.13.54.26.81.39-1.16,3.29-2.33,6.58-3.49,9.86.17.06.34.12.51.18,3.31-5.16,6.62-10.31,9.93-15.47.11.05.22.11.33.16-3.09,8.71-6.18,17.43-9.25,26.16-.12,1.47-.26,2.93-.39,4.38.28,0,.55,0,.83-.01-.17-1.49-.34-2.98-.51-4.46.75-1.31,1.77-2.54,2.19-3.94,2.42-7.96,7.19-14.49,12.73-20.7-.74,1.79-1.48,3.57-2.23,5.36.19.1.38.19.57.29l6.85-9.74c.18.09.36.18.55.27-.65,1.61-1.52,3.18-1.89,4.85-.4,1.78-.33,3.67-.55,6.57,3.49-5.37,5.96-10.63,11.12-13.92-1.45,4.57-2.83,8.95-4.22,13.32.34.15.67.31,1.01.46,1.42-4.67,2.48-9.56,7.54-12.61-1.64,3.55-3.09,6.67-4.53,9.78.2.11.4.22.6.33,2.34-3.78,4.68-7.55,7.02-11.33.21.09.43.19.64.28v2.05c1.15-1.09,1.99-1.88,3.06-2.89.15.85.24,1.37.46,2.59.83-1.33,1.46-2.34,2.09-3.34.34.16.68.32,1.02.48.19,1.57.37,3.14.59,4.95.87-1.17,1.64-2.2,2.44-3.28,1.93-.59,2.79,1.81,4.88,1.76,1.96-.05,4.04,1.23,5.92,2.21,1.79.94,3.3,2.42,5.09,3.35,3.48,1.8,7.06,3.41,10.64,5.01.75.34,1.81.59,2.52.33,4.75-1.71,9.49-3.45,14.1-5.48.73-.32.79-2.18,1.4-4.08,1.05,2.46,1.79,4.21,2.54,5.95.19-.06.38-.12.57-.18-.48-1.87-.95-3.74-1.68-6.58,1.51,1.89,2.39,2.99,3.6,4.5.07-1.55.13-2.75.22-4.75,1.41,2.27,2.38,3.83,3.35,5.39.21-.08.42-.15.63-.23-.6-1.78-1.2-3.56-1.8-5.36.9-.37,1.8-.74,3.08-1.27,1.35,1.65,2.89,3.54,4.43,5.42.22-.1.43-.21.65-.31-1.02-2.09-2.04-4.18-3.06-6.27q3.27-.14,8.69,5.76c-.05-2.68-2.29-4.05-2.29-6.51,1.01,1.45,2.02,2.9,3.03,4.35.25-.23.51-.46.76-.69-.09-1.22-.19-2.45-.31-4.11,3.08,1.34,3.86,4.31,6.15,5.94-.21-1.64-.4-3.17-.66-5.2,3.01,1.51,3.83,4.52,6.41,6.1l-3.08-6.1c5.21,2.24,8.79,6.23,12.66,9.99-.85-3.79-3.65-6.41-5.93-10.08,1.97,1.04,3.45,1.81,4.91,2.6-.16,1.63.32,2.83,2.61,3.48-1.13-1.42-1.9-2.4-2.68-3.38.6.15,1.34.13,1.76.49,2.47,2.13,4.85,4.35,7.35,6.61-1.2-2.35-2.4-4.69-3.82-7.47,5.18,2.6,8.13,6.69,11.02,10.84.24-.17.47-.34.71-.5-1.8-3.02-3.61-6.05-5.41-9.07.07-.13.14-.25.21-.38,2.21,1.93,4.42,3.85,6.63,5.78l.48-.41c-.79-1.09-1.58-2.19-2.37-3.28,4.87,2.19,8.15,6.41,12.63,10.13-.72-4.3-3.94-6.65-5.59-10.6,6.63,3.56,10.34,9.17,15.29,13.88-.54-1.63-1.01-3.28-1.65-4.87-.69-1.71-1.54-3.36-2.06-5.2,3.99,3.43,6.29,8.13,9.23,12.47.69-4.15-1.1-7.7-2.74-11.28.28-.15.56-.29.84-.44,2.16,3.11,4.32,6.22,6.47,9.33.18-.03.36-.07.54-.1-.49-1.75-.97-3.51-1.67-6.03,1.29,1.42,2.1,2.31,2.91,3.2.16-.07.32-.15.48-.22-.32-1.13-.65-2.26-.97-3.39,3.64,4.37,6.19,9.25,7.72,14.68-.25-5.79-1.9-11.13-5.09-15.92-7.13-10.73-15.5-20.39-25.21-28.87-2.06-1.8-4.19-3.51-6.1-5.51,5.55,3.03,10.78,6.54,15.5,10.71,7.21,6.36,14.5,12.72,19.52,21.06,4.83,8.02,7.28,16.58,3.75,25.84-1.55,4.07-3.41,8.04-5.25,12-3.32,7.15-6.43,14.35-7,22.36-.03.36-.37.7-1.01,1.88-.58-3.61-1.03-6.44-1.48-9.26-1.02,7.92,2.03,15.24,3.79,22.74-.28.07-.57.14-.85.22-1.51-5.22-3.24-10.38-4.45-15.67-.84-3.65-2.07-7.76-1.15-11.13,1.19-4.37.6-8.62.98-12.89.29-3.23-.55-6.57-.85-9.56-3.04-1.11-5.55-1.82-7.88-2.91-3.55-1.65-7.8-1.01-11.09-3.55-.47-.36-1.61.25-2.44.22-2.17-.08-4.35-.13-6.49-.45-4.08-.61-7.83-1.72-9.15-6.44-.37-1.32-1.39-2.46-2.74-3.43.91,2.76,1.81,5.52,2.72,8.28-.26.11-.52.23-.78.34-2.13-4.23-4.26-8.46-6.39-12.69-.2.09-.41.19-.61.28,1.33,3.92,2.67,7.84,4.2,12.33-1.83-.42-3.19-.68-4.52-1.04-4.86-1.28-9.81-.82-14.73-.8-1.31,0-2.63-.05-3.93.04-2.42.18-4.67.04-5.81-3.33-.16,1.32-.22,1.82-.36,2.9-1.32-1.65-2.37-2.95-3.41-4.25-.13.04-.26.09-.39.13.47,1.39.93,2.78,1.56,4.66-2.63.31-5.11.61-7.59.91-7.02.85-13.97,2.65-21.09,2.22-5.91-.36-11.79-1.23-17.69-1.83-5.85-.59-11.67-1.36-17.55.1-3.16.79-6.47.95-9.78,1.41-.57-1.47-1.14-2.93-1.96-5.06-.7,1.62-1.16,2.68-1.82,4.22-.35-1.27-.57-2.04-.79-2.82-.24.08-.62.09-.7.25-.76,1.57-1.64,2.5-3.62,3.11-3.78,1.16-7.25,3.32-10.9,4.94-.87.39-1.95.3-3.26.47-.46,2.63-.98,5.6-1.5,8.59-.35-.32-.83-.76-1.58-1.45-1.14,2.12-.99,4.31-.31,6.18,1.79,4.9,1.39,9.72.26,14.61l.12-.11Zm-4.86,1.68c3.73-5.2,4.75-9.91,3.14-12.28-1.03,4.04-2.09,8.16-3.14,12.28Zm41.83-41.59c-.26-.06-.53-.12-.79-.18-.07,1.19-.13,2.37-.2,3.56.24.02.47.03.71.05.09-1.14.19-2.29.28-3.43Z"/>
      <path class="cls-1" d="m423.89,442.3c-1.94,3.13-4.41,4.88-6.89,6.63-12.34,8.76-26,14.83-40.15,19.98-9.59,3.49-19.21,7.05-29.34,8.36-8.92,1.16-18.01,2.1-26.95,1.68-11.23-.53-21.42-5.22-30.94-11.11-8.96-5.54-16.8-12.52-24.53-19.62-1.16-1.06-2.16-2.29-3.28-3.48,1.29-3.2,3.2-5.02,6.46-5.46,12.09-1.62,24.08-4.3,36.39-3.48,4.35.29,8.73.51,13.03,1.16,8.17,1.23,16.27.8,24.35-.51,10.85-1.76,21.74-1.97,32.65-.94,12.15,1.15,24.29,2.49,36.43,3.78,2.6.28,5.21.54,7.76,1.08,1.61.34,3.11,1.18,5.01,1.93Zm-66.97,9.49c-2.7-1.27-3.39-1.37-6.02-1-9.35,1.3-18.71,2.11-28.14.98-2.45-.29-4.95-.34-7.37-.79-2.49-.46-4.77-.65-6.42,1.92-2.2-3.25-5.32-4.26-8.48-4.66-1.38-.17-2.94,1.05-4.27,1.58-1.24-1.36-2.33-2.97-3.8-4.08-2.77-2.1-4.66-1.17-4.88,2.33-.16,2.5-.03,5.02-.03,7.53q-1.86-9.95-4.77-10.85c-.47,5.4-.51,10.56,1.53,15.85,1.55-.58,2.52-.94,3.52-1.31,1.67,6.16,3.12,6.84,9.55,4.7,2.78,7.74,7.11,9.32,13.33,4.77,1.94,4.16,5.7,5.08,9.77,5.39,4.99.38,9.13-1.15,12.02-6,3.34,4.75,7.87,5.41,12.68,4.47,4.56-.9,9.77-.53,12.58-5.44,5.26,3.64,10.34,1.71,16.72-6.17,3.5,3.83,5.96,4.26,9.14,1.33,1.14-1.05,1.91-2.53,2.71-3.9.52-.89.77-1.93,1.34-3.41.26,1.05.42,1.46.45,1.87.11,1.56.6,3.29,2.26,3.21,1.37-.07,3.3-.96,3.92-2.08,2.6-4.69,3-9.79,2.34-15-3.91-.33-7.25-.6-8.63,2.7-1.59-.3-2.85-.91-3.92-.67-4,.88-8.66.64-10.4,5.68-5.1-4.34-11.1-3.93-16.74,1.07Zm38.01-12.08c-.01-.35-.03-.7-.04-1.05-3.87-.18-7.75-.33-11.62-.55-14.4-.81-28.76-1.02-43.01,1.87-6.3,1.28-12.79,1.92-19.08.76-12.83-2.35-25.72-2.44-38.66-2.31-.76,0-1.52.12-2.28.19.96,1.01,1.98,1.37,3.03,1.57,2.14.41,4.34.56,6.44,1.11,11.53,3,23.22,5.29,35.08,6.24,6.62.53,13.4.53,19.98-.28,14.54-1.78,29-4.21,43.5-6.4,2.23-.34,4.45-.77,6.67-1.16Zm4.63,17.98c1.49-1.88,2.84-2.9,3.22-4.2.83-2.87,1.27-5.87,1.68-8.84.23-1.7-.29-3.21-2.35-3.48-2.17-.28-3.32.97-3.6,2.88-.43,2.98-.77,5.99-.78,8.99,0,1.25.94,2.5,1.84,4.66Z"/>
      <path class="cls-1" d="m469.21,253.95c8.16,6.97,15.52,14.63,20.79,24.29-9-4.35-17.77-9.01-27.92-9.95,1.24-.15,2.47-.3,4.65-.57-3.65-.69-6.32-1.19-8.98-1.69.01-.18.03-.36.04-.54,1.56.13,3.13.27,4.69.39,1.71.14,3.43.28,5.17.03-8.32-2.09-16.76-2.54-25.33-1.39-.03-.35-.06-.69-.1-1.04,3.52-.65,7.02-1.56,10.57-1.88,3.57-.33,7.19-.07,11.78-.07-4.65-1.05-8.36-1.25-12.19-1.08-16.63.76-32.84,4.35-49.18,7.03-3,.49-6.01.97-9.76,1.58.81-1.17,1.23-1.76,1.75-2.51-3.46,1.44-6.77,2.82-10.1,4.2-.26-.75-.42-1.21-.55-1.56-2.58,1.11-5.16,2.21-7.97,3.42-.24-2.74,1.5-4.83,2.28-7.2.48-1.48.81-3.01,1.21-4.51,0,0-.1.17-.1.17,1.19-2.22,2.38-4.45,3.58-6.67,0,0,.03-.06.03-.06,6.5-5.81,14.45-8.44,22.71-10.42.81-.19,1.64-.26,2.6.03-2.41,1.27-4.82,2.53-7.22,3.8.04.08.08.15.13.23,3.72-1.13,7.38-2.7,11.19-3.26,3.84-.56,7.82-.12,12.75-.12-2.3.87-3.76,1.43-5.22,1.99.02.1.04.21.06.31,3.11-.22,6.22-.48,9.34-.66,1.3-.07,2.64-.14,3.92.07,6.3,1.07,12.58,2.23,18.99,2.92-3.91-2.2-8.28-3.04-12.44-4.56,5.85-.92,11.26.57,16.51,3.03,1.7.8,3.45,1.48,5.17,2.22,2.39,1.34,4.77,2.68,7.16,4.02Zm-7.94.86c-3.36-1.98-7.14-3.28-12.23-2.29,4.67.87,8.45,1.58,12.23,2.29Zm-19.94-1.98l-.23-.55c-.76.11-1.53.22-2.29.32.02.16.04.32.06.48.82-.08,1.64-.17,2.46-.25Z"/>
      <path class="cls-1" d="m294.79,269.5c.15.93.31,1.86.46,2.79,0,.61,0,1.23-.01,1.84-.68-.21-1.52-.25-2.02-.67-3.01-2.58-5.94-5.24-9.29-7.44,2.12,2.12,4.24,4.24,6.35,6.36-.13.25-.26.51-.39.76-3.25-1.18-6.71-1.98-9.69-3.63-2.94-1.62-5.39-4.11-8.2-6.03,3.14,4.01,6.49,7.74,12.27,9.26-3.72,1.62-6.8,1.91-10.18,1.48-8.51-1.09-17.09-1.64-25.59-2.76-4-.53-7.87-2-11.84-2.83-4.1-.86-8.24-1.59-12.4-2.13-1.47-.19-3.04.37-4.57.99,5.32.59,10.83-.41,16.62,2.78-6.67.96-12.75-.57-18.44,1.91,2.47.22,4.94.45,7.4.67.1.29.2.58.3.87-11.6.72-17.72,6.96-18.86,18.21-1.59-2.15-2.67-5.43-2.26-8.73,1.69-13.65,6.38-25.95,16.63-35.62.16-.15.46-.15.96-.29-2.48,3.72-4.86,7.28-7.23,10.83.2.27.4.55.61.82,5.73-5.58,12.21-9.46,20.11-9.77-1.19,1.07-2.48,2.23-3.78,3.38-1.23.14-2.45.29-3.67.45.06.28.12.57.18.85,1.14-.46,2.27-.92,3.41-1.38,3.27-1.01,6.55-2.02,9.82-3.03.07.21.15.43.22.64-3.45,1.75-6.89,3.5-10.34,5.25.07.23.15.47.22.7,1.07-.27,2.17-.47,3.21-.83,7.49-2.59,15.27-3.47,23.12-3.85,9.71-.47,18.42,2.04,25.75,9.69-.41-4.72-4.27-5.49-7.48-7.97,3.77.39,6.12,1.95,8.22,3.78,3.3,2.86,6.3,6.01,8.24,10.04.47.98,1.41,1.74,2.14,2.61,0,0,0,0,0,0Zm-27.44-8.28l.57-.84c-3.59-2.2-7.19-4.4-11.24-5.63-.12.26-.25.52-.37.78,3.68,1.9,7.36,3.79,11.03,5.69Zm-33.39-.48c-.07.29-.14.57-.21.86l7.22,1.89c.07-.29.14-.58.2-.86l-7.22-1.88Zm-.07,4.55l.08-.88c-2.04-.32-4.07-.63-6.11-.95-.03.21-.06.42-.09.64,2.04.4,4.09.79,6.13,1.19Zm25.25,5.04c0-.13,0-.26.01-.39-.93-.04-1.86-.09-2.79-.13,0,.18,0,.35-.01.53h2.8Z"/>
      <path class="cls-1" d="m485.62,306.7c-4.18,2.39-8.43,2.76-12.52,2.52-11.31-.66-22.35,1.2-33.43,2.82-8.25,1.21-16.51,1.31-24.83.98-12.5-.49-25.01-.79-37.52-1.16-.99-.03-1.98,0-3.07,0,4.07-2.85,7.96-5.5,11.78-8.25,15.69-11.29,32.91-14.32,51.33-8.74,7.76,2.35,15.16,5.94,22.65,9.12,7.74,3.29,15.64,4.37,23.88,2.45.38-.09.82.11,1.72.25Zm-100.19,2.48h23.19c-.34-3.84-.64-7.24-.96-10.9-8.36,1.37-15.21,5.4-22.23,10.9Zm65.54-1.58c.03-.31.05-.62.08-.93-3.44-1.91-6.88-3.82-10.65-5.91-.68,3-1.2,5.3-1.82,8.04,4.47-.43,8.43-.82,12.39-1.2Zm-26.71-8.79c-.47-.29-1.16-1.04-1.94-1.16-1.89-.28-2.6,1.05-2.42,2.63.09.78.82,1.87,1.5,2.11,1.31.45,2.85-1.33,2.85-3.58Z"/>
      <path class="cls-1" d="m220.51,314.64c.77-.55,1.54-1.11,2.87-2.06-3.83-.96-7.22-1.81-10.61-2.66.01-.22.02-.44.03-.65,1.89,0,3.78.12,5.66-.02,4.83-.37,9.46-1.56,13.84-3.67,3.15-1.51,6.34-2.92,9.46-4.48,8.11-4.04,16.84-5.71,25.75-5.81,12.1-.15,22.23,4.98,30.86,13.23,1.68,1.6,3.2,3.37,5.23,5.52-9.57.78-18.71,1.56-27.87,2.25-10.79.81-21.5-.08-32.21-1.39-7.51-.92-15.06-1.16-23.01-.24Zm59.41-11.64c-.71,3.83-1.28,6.9-1.84,9.89,2.92,0,5.94.16,8.95-.04,3.04-.2,6.16,1.07,10.13-.57-6.18-3.33-11.6-6.24-17.24-9.27Zm-42.42,6.41c6.44,2.42,12.01,3.34,14.77,2.6-.45-1.82-1.13-3.61-1.3-5.45-.16-1.74.2-3.53.37-5.74-5.51,1.85-9.86,4.4-13.84,8.6Zm27.59-1.44c1.22-1.71,2.19-2.55,2.45-3.58.36-1.39-.3-2.58-1.99-2.71-1.62-.13-2.93.96-2.68,2.62.15,1.01,1.1,1.9,2.21,3.66Z"/>
      <path class="cls-1" d="m345.11,520.59c.93,1.21,1.76,2.52,2.81,3.62,1.09,1.14,2.39,2.08,3.6,3.11-.18.25-.37.5-.55.75-1.81-1.06-3.62-2.12-6.06-3.55.33,1.51.52,2.39.72,3.33-.21,0-.51.08-.59-.01-2.03-2.4-4.12-4.68-7.75-5.15.76,1.9,1.47,3.71,2.19,5.51l-.85.37-5.16-11.14-.6.04c.25,2.11.46,4.23.76,6.34.3,2.1.68,4.2.44,6.43-.7-2.28-1.39-4.57-2.19-7.18-1.47,2.42-2.75,4.53-4.58,7.53.37-2.88.6-4.68.83-6.49-.3-.11-.59-.21-.89-.32-1.11,1.69-2.23,3.39-3.34,5.08-.13-.05-.26-.1-.39-.16.68-2.38,1.36-4.77,2.04-7.15-.18-.05-.37-.1-.55-.15l-5.32,6.19s.07.06.07.06c.65-1.67,1.31-3.33,1.9-4.86-2.9,2.16-5.81,4.33-8.73,6.51-.15-.16-.31-.32-.46-.48,2.42-2.58,4.84-5.17,7.26-7.75-.2-.2-.4-.41-.6-.61-2.39,2.11-4.79,4.23-7.18,6.34-.15-.14-.3-.28-.46-.42,1.84-2.68,3.69-5.36,5.53-8.04-.16-.09-.32-.19-.48-.28-2,1.76-3.99,3.53-5.99,5.29-.19-.18-.38-.36-.58-.54.5-.71,1-1.42,1.69-2.41-1.94.38-3.58.7-5.21,1.02-.04-.14-.08-.28-.12-.42,1.69-1.01,3.38-2.02,6.1-3.64-10.87-1.75-14.72-9.76-19.69-17.77,2.25,2.57,3.99,4.55,6,6.85.8-1.68,1.1-2.31,1.56-3.27,1.62,1.09,3.13,2.12,4.82,3.26v-1.64c3.18,1.3,6.3,2.66,9.51,3.81.64.23,1.7-.77,2.35-.56.89.29,1.58,1.21,2.5,1.98.4-.51.78-1,1.15-1.49,1.76,2.01,3.8.28,5.69.37,5.62.26,11.26.61,16.88.41,3.66-.13,7.28-1.17,10.93-1.77,1.08-.18,2.09-.15,1.39,1.5,3.42-.03,5.5-2.72,8.46-4.56-.24,1.29-.38,2.07-.68,3.66,1.95-1.53,3.37-2.64,4.77-3.73-.93,3.79-3.7,6.55-11.02,10.82,2.73,1.04,4.73-.88,7.18-1.47-2.2,3.31-3.7,4.1-9.63,5.32.18.46.36.91.53,1.36-.14.04-.3.15-.41.11-1.63-.46-3.25-.94-5.58-1.62,1.6,1.54,2.69,2.58,3.82,3.66-.89.73-1.65,1.35-2.39,1.96-1.83-1.27-3.68-2.57-5.54-3.86-.55-.93-1.09-1.86-1.64-2.79-.25.15-.49.31-.74.46.35.53.63,1.13,1.07,1.56.36.34.92.47,1.39.69Z"/>
      <path class="cls-1" d="m289.29,361.38c-1.52,2.77-3.16,5.47-4.52,8.31-1.75,3.66-3.51,7.35-4.83,11.18-1.38,4-.15,7.79,2.22,11.14,1.8,2.56,4.23,3.52,6.79,2.21,3.55-1.81,6.75-1.02,10.04.37,2.07.88,4.12,1.8,6.58,2.87-1.47-4.63-2.77-8.69-4.07-12.76.23-.09.46-.18.69-.27.55,1.36,1.23,2.69,1.62,4.09,1.96,6.95,6.23,12.06,12.32,15.77,2.61,1.59,5.24,3.13,7.84,4.72,2.53,1.54,5.07,1.34,7.33-.34,2.67-1.99,5.37-4.03,7.61-6.46,5.9-6.4,13.07-9.44,21.72-9.3,5.42.09,10.29,1.53,14.29,5.24,8.78-4.8,12.04-13.02,8.78-22.03-2.04-5.66-5.2-10.6-10.55-15.19,10.19,3.88,17.13,13.56,17.22,22.99.06,5.75-2.7,10.13-7.26,13.19-4.32,2.9-9.04,4.31-14.43,2.51-7.03-2.36-14.04-1.56-20.93,1-2.53.94-4.63,2.31-6.26,4.51-4.59,6.23-10.71,9.09-18.52,8.47-3.32-.26-6.08-1.53-8.87-3.25-5.3-3.28-10.72-6.39-16.28-9.22-1.97-1-4.46-1.33-6.71-1.34-10.61-.05-17.71-8.8-15.55-19.33,1.38-6.71,5.62-11.7,9.84-16.74.93-1.12,1.74-2.34,2.6-3.52l1.28,1.14Z"/>
      <path class="cls-1" d="m385.23,482.99c-.96,1.01-1.83,2.12-2.88,3.03-14.25,12.37-30.82,18.24-49.7,17.99-8.04-.1-15.93-.42-23.69-2.96-10.87-3.55-18.88-10.64-25.67-19.47-2.34-3.05-4.79-6.02-7.19-9.03l.64-.58c1.04,1.09,2.08,2.18,3.11,3.27,3.3,3.49,6.57,7,9.91,10.46,8.23,8.51,18.5,13.03,30.01,14.73,22.48,3.31,43.07-1.49,61.51-14.98,1.25-.91,2.67-1.59,4.02-2.37,0,0-.08-.09-.08-.09Z"/>
      <path class="cls-1" d="m480.67,301.31c-2.3.35-4.6,1.03-6.88.99-5.46-.1-10.64-1.53-15.32-4.44-2.22-1.38-4.44-2.78-6.56-4.32-5.83-4.22-12.44-6.62-19.47-6.95-8.83-.42-17.78-1.23-26.54.66-4.06.88-8.18,2.22-11.82,4.2-5.46,2.97-10.51,6.68-15.24,9.75,3.57-6.67,13.96-14.61,22.99-16.53,19.87-4.22,38.72-1.6,56.2,9.15,1.24.76,2.46,1.55,3.7,2.32,7.53,4.67,10.76,5.45,18.94,5.17Z"/>
      <path class="cls-1" d="m307.21,286.22c8.14,4.53,12.08,11.53,10.86,20.51-2.06,15.24-4.18,30.51-9.92,44.99-2.71,6.85-5.07,13.84-7.93,20.75.58-2.75,1.03-5.53,1.75-8.24,2.78-10.52,6.08-20.93,8.36-31.56,2.23-10.38,2.58-21.06,2.23-31.68-.14-4.39-1.59-8.55-3.97-12.31-.5-.79-.93-1.63-1.39-2.45Z"/>
      <path class="cls-1" d="m383.59,254.34s-.03.06-.03.06c-1.32,2.15-3.63,3.78-3.58,6.67,0,0,.1-.17.1-.17-2.65,4.27-5.29,8.55-8.11,13.11-1.85-2.83-1.45-6.02-1.77-10.14-.93,2.03-1.43,3.12-1.93,4.2-2.14-7.43-.47-11.57,8.8-20.04-.79,1.25-1.58,2.51-2.37,3.76.15.18.31.36.46.53,1.65-1.24,3.33-2.45,4.95-3.73,1.7-1.34,3.35-2.74,5.49-3.73-1.86,2.33-3.72,4.66-5.57,7,.15.19.3.38.45.57,1.56-1.02,3.07-2.12,4.69-3.03,1.72-.96,3.55-1.74,6.22-3.02-3.11,3.18-5.45,5.57-7.79,7.97Zm-10.12,9.63q-1.54,3.06-.72,6.09c.34-1.93.65-3.6.92-5.29.04-.25-.13-.53-.2-.8Z"/>
      <path class="cls-1" d="m216.8,303.43c4.19.16,7.45-1.85,10.73-4.19,15.51-11.03,32.76-14.33,51.36-11.14,5.4.92,13.04,4.72,16.11,10.24-.53-.17-.96-.18-1.23-.4-6.62-5.4-14.6-7.09-22.73-7.91-8.42-.85-16.9-.53-25.01,2.22-3.81,1.29-7.46,3.15-11.04,5.02-3.08,1.61-5.89,3.76-8.96,5.4-2.84,1.52-5.92,2.27-9.24.77Z"/>
      <path class="cls-1" d="m385.31,323.33c6.63,1.6,12.92,3.21,19.25,4.63,6.39,1.44,12.8,2.7,19.43,2.44,11.08-.44,21.5-3.43,31.58-7.83,1.73-.75,3.42-1.58,5.47-2.54-14.36,14.04-60.11,16.01-75.73,3.3Z"/>
      <path class="cls-1" d="m227.67,325.64c19.15,9.53,38.54,11.24,58.26,1.88-11.98,10.35-45.14,10.22-58.26-1.88Z"/>
      <path class="cls-1" d="m299.62,276.82c1.51-5.77-1.22-11.01-2.05-16.49-.26-1.7-.87-3.34-1.35-5.13,3.32,3.21,4.07,4.08,4.18,6.14.15,2.71.04,5.44.04,8.16.29,0,.58,0,.87-.01v-10.23c.23-.05.47-.1.7-.15.31,1.1.78,2.18.89,3.29.54,5.14-.39,9.97-3.37,14.29,0,0,.09.12.09.12Z"/>
      <path class="cls-1" d="m368.26,319.1c-5.77-5.56-4.62-14.78,3.27-23.44-3.93,7.46-4.9,15.28-3.27,23.44Z"/>
      <path class="cls-1" d="m469.21,253.95c-2.39-1.34-4.77-2.68-7.16-4.02-5.08-4.86-11.47-6.45-18.16-7.31-.98-.13-1.97-.17-3.57-.29,10.03-2.43,20.95,3.01,28.89,11.63Z"/>
      <path class="cls-1" d="m362.23,251.99c.99,7.46-.12,15.11,2.48,22.5-4.64-5.13-5.87-16.67-2.48-22.5Z"/>
      <path class="cls-1" d="m297.28,273.39c-.75-7.58-2.57-14.74-8.17-20.45,3.86,2.64,7.33,5.45,7.93,10.5.46,3.85,1.12,7.67,1.76,11.5.11.65.54,1.25.82,1.88,0,0-.09-.12-.09-.12.02,1.58-.87,1.34-1.32.44-.59-1.17-.73-2.57-1.07-3.88,0,0,.14.12.14.12Z"/>
      <path class="cls-1" d="m305.18,324.49c3.18-8.26.46-15.6-4.06-23.35,7.55,6.41,9.18,16.8,4.06,23.35Z"/>
      <path class="cls-1" d="m365.81,271.69c-3.04-7.66-1.52-14.74,2.66-21.49-1.81,7.05-3.23,14.14-2.66,21.49Z"/>
      <path class="cls-1" d="m294.79,269.51c-2.22-6.82-5.5-12.96-11.41-17.42,7.46,3.04,12.08,11.06,11.41,17.41,0,0,0,.01,0,.01Z"/>
      <path class="cls-1" d="m306.27,262.21c1.75,5.35,2.03,10.14-1.3,14.57.42-4.69.84-9.42,1.3-14.57Z"/>
      <path class="cls-1" d="m349.53,261.19c.98,3.94,2.04,8.19,2.91,11.72-3.24-2.49-4.63-7.74-2.91-11.72Z"/>
      <path class="cls-1" d="m355.9,254.85c.59,5.53,1.19,11.05,1.75,16.26-2.04-3.23-2.49-7.08-1.75-16.26Z"/>
      <path class="cls-1" d="m249.74,479.05c1.39-2.86,2.78-5.73,4.17-8.59.27.12.54.24.81.36-.67,1.53-1.29,3.08-2.01,4.59-.66,1.39-1.41,2.73-2.12,4.08l-.86-.44Z"/>
      <path class="cls-1" d="m359.88,271.63c-.64-2.2-1.28-4.4-1.92-6.6.25-.07.51-.15.76-.22l1.91,6.6-.75.21Z"/>
      <path class="cls-1" d="m428.3,481.12c-2.23-1.52-1.9-3.77-1.29-6.11.4,2.06.8,4.12,1.2,6.18l.09-.07Z"/>
      <path class="cls-1" d="m385.31,483.08c1.29-1.45,2.57-2.9,3.86-4.34.22.22.43.44.65.67-1.39,1.35-2.38,3.12-4.59,3.59,0,0,.08.09.08.09Z"/>
      <path class="cls-1" d="m428.21,481.19c.85,1.92,1.7,3.84,2.55,5.76l-.83.32c-.98-1.89-2.21-3.68-1.64-6.15,0,0-.08.07-.08.07Z"/>
      <path class="cls-1" d="m295.24,274.13c0-.61,0-1.23.01-1.84.67.36,1.35.73,2.03,1.09,0,0-.14-.12-.13-.12-.15.67-.3,1.33-.55,2.42-.57-.66-.96-1.11-1.35-1.55Z"/>
      <path class="cls-1" d="m476.96,314.23c-.86-.33-1.71-.67-2.57-1,.05-.15.1-.3.14-.46.87.26,1.73.52,2.6.78l-.17.68Z"/>
      <path class="cls-1" d="m397.33,471.07c.45-.57.9-1.14,1.34-1.72l.47.39-1.44,1.63c-.12-.1-.24-.21-.37-.31Z"/>
      <path class="cls-1" d="m255.59,465.83c.54-.41,1.08-.81,2.09-1.57-.51,1.31-.85,2.2-1.32,3.42-.3-.94-.46-1.46-.64-1.97,0,0-.13.12-.13.12Z"/>
      <path class="cls-1" d="m319.68,527.59c-.38.82-.76,1.64-1.14,2.47l-.73-.57c.64-.61,1.29-1.23,1.93-1.84,0,0-.07-.06-.07-.06Z"/>
      <path class="cls-1" d="m279.2,971.82c.32-19.52,13.28-92.29,24.72-108.46-10.44,35.65-16.78,72.24-24.72,108.46Z"/>
      <path class="cls-1" d="m303.12,827.43c-.06,5.95-5.27,11.23-11.12,11.27-5.89.04-10.78-4.89-10.81-10.9-.04-6.2,5.25-11.75,11.18-11.74,6.13,0,10.81,4.96,10.75,11.38Zm-5.89.03c-.05-3.3-2.39-5.73-5.37-5.6-2.79.13-5.04,2.58-5.09,5.53-.05,3.02,2.47,5.83,5.29,5.89,2.87.07,5.22-2.59,5.17-5.83Z"/>
      <path class="cls-1" d="m359.37,725.16c0,4.86-5.77,11.25-10.63,11.79-3.03.33-5.12-1.67-5.2-4.99-.11-4.6,4.79-10.98,9.26-12.03,3.91-.92,6.57,1.2,6.57,5.23Zm-5.07-.62c-4.52.67-6.69,3.55-5.84,7.76,4.31-1.07,6.22-3.6,5.84-7.76Z"/>
      <path class="cls-1" d="m320.44,813.63c.48-1.28.91-2.59,1.43-3.85,3.01-7.2,7.27-13.65,12.58-19.28,9.68-10.25,19.66-20.22,29.51-30.3.31.29.61.57.92.86-5.15,5.48-10.43,10.84-15.41,16.46-5.12,5.77-10.11,11.65-14.86,17.73-4.73,6.05-9.08,12.41-13.59,18.63-.19-.08-.39-.16-.58-.24Z"/>
      <path class="cls-1" d="m485.81,532.22c-4.66,4.73-9.18,9.61-14.02,14.15-12.46,11.69-26.56,21.27-40.73,30.7-12.24,8.15-25.11,15.25-38.41,21.53-18.32,8.65-37.49,13.18-55.18,11.82,5.47-.7,13.64-1.31,21.62-2.88,12.6-2.48,24.54-7.11,35.99-12.91,27.35-13.86,52.89-30.53,76.44-50.18,4.79-3.99,9.09-8.56,13.62-12.87.22.21.44.42.66.63Z"/>
      <path class="cls-1" d="m329.63,644.43c-7.41,1.34-13.71-1.21-18.34-6.65-7.22-8.48-11.64-18.31-11.58-29.75,0-.39.12-.77.28-1.65,1.72,8.37,5.34,15.44,9.36,22.32,4.62,7.91,11.7,12.69,20.28,15.74Z"/>
      <path class="cls-1" d="m273.81,700.39c-4.92,10.26-6.57,21.83-13.04,31.83-.95-6.72,7.28-26.9,13.04-31.83Z"/>
      <path class="cls-1" d="m240.93,666.5l-1.54,5.47c-.32-.12-.64-.24-.97-.37.87-1.67,1.74-3.35,2.6-5.02,0,0-.09-.08-.09-.08Z"/>
      <path class="cls-1" d="m584.95,317.83c-.92-2.4-1.78-4.82-2.78-7.19-1.73-4.08-5.57-5.2-8.67-2.04-7.66,7.78-14.76,16.06-20.34,25.52-.13.22-.07.55-.11.9,2.03,1.28,4.28,2.34,6.11,3.9,5.5,4.68,8.01,10.99,8.77,17.98.5,4.65.13,9.3-1.7,13.71-1.92,4.63-4.79,8.07-9.81,9.79-8.63,2.95-12.22,8.89-11.55,18.21.1,1.38.25,2.75,0,4.15-3.45-6.68-4.57-13.63-2.36-20.92.97-3.2,2.18-6.32,3.15-9.52,1.23-4.03,1.03-8.04-.51-11.98-3.57-9.14-2.5-18.15,1.75-26.62,5.72-11.42,13.89-21.1,23.12-29.87,1.24-1.18,2.77-2.15,4.32-2.91,5.96-2.91,11.78.16,12.42,6.78.31,3.25-.29,6.58-.48,9.87-.44.08-.89.16-1.33.25Zm-35.48,62.39c2.53-1.08,4.32-1.91,6.15-2.63,3.55-1.38,5.8-3.91,6.35-7.66.48-3.28.89-6.63.81-9.94-.18-7.55-4.18-13.11-10-17.49-.85-.64-2.05-.83-3-1.19-3.73,4.87-4.3,9.8-1.6,13.94,4.62,7.08,5.71,14.45,2.16,22.31-.27.6-.42,1.25-.88,2.65Z"/>
      <path class="cls-1" d="m575.6,311.41c3.1,2.14,3.1,4.71,3.42,6.86,1.33,9.06,2.97,18.15,3.36,27.27.69,16.51-2.44,32.14-13.33,45.42-3.86,4.7-7.4,9.67-11.67,15.29.25-4.08,1.5-7.02,3.25-9.67,1.84-2.78,3.99-5.37,6.14-7.94,7.34-8.79,11.1-18.84,11.83-30.32.66-10.33-.88-20.28-3.2-30.24-.78-3.37-1.11-6.88-1.2-10.34-.05-1.9.81-3.82,1.41-6.33Z"/>
      <path class="cls-1" d="m352.17,42.3c-1.1-.27-2.19-.54-3.29-.81.1-.26.2-.51.3-.77.97.56,1.94,1.11,2.91,1.67,0,0,.08-.09.08-.09Z"/>
      <path class="cls-1" d="m249.35,1085.3c-1.87-.01-3.14-1.35-3.16-3.34-.03-2.13,1.4-3.63,3.41-3.59,1.85.03,3.19,1.42,3.2,3.32.02,2.08-1.46,3.62-3.45,3.61Z"/>
      <path class="cls-1" d="m236.06,1214.39c-.03,2.12-1.15,3.26-3.16,3.19-1.94-.06-3.17-1.33-3.19-3.29-.02-2.01,1.65-3.74,3.45-3.57,1.63.15,2.92,1.78,2.9,3.67Z"/>
    </g>
  </g>
</svg>