<?xml version="1.0" encoding="UTF-8"?>
<svg id="Layer_2" data-name="Layer 2" xmlns="http://www.w3.org/2000/svg" viewBox="0 0 907.22 342.78">
  <defs>
    <style>
      .cls-1 {
        stroke-width: 4px;
      }

      .cls-1, .cls-2 {
        fill: none;
        stroke: #000;
        stroke-miterlimit: 10;
      }

      .cls-3 {
        fill: #7b43da;
      }

      .cls-4 {
        fill: #429b49;
      }

      .cls-5 {
        fill: #f9ba0b;
      }

      .cls-2 {
        stroke-width: 3px;
      }

      .cls-6 {
        fill: #d04691;
      }

      .cls-7 {
        fill: #1758b4;
      }

      .cls-8 {
        fill: #ea363f;
      }
    </style>
  </defs>
  <g id="Layer_1-2" data-name="Layer 1">
    <path d="m672.08,148.96c0,26.48,0,52.96,0,79.44,0,6.39-.02,6.4-6.57,6.41-4.19.01-8.39-.2-12.56.06-4.2.26-5.81-1.16-5.74-5.58.23-14.96.09-29.92.09-44.88,0-38.3,0-76.6,0-114.9,0-6.38.02-6.39,6.55-6.41,3.89-.01,7.78-.01,11.67,0,6.54.02,6.55.03,6.56,6.41,0,26.48,0,52.96,0,79.44Z"/>
    <path d="m800.23,49.74c-.2.1-.4.2-.59.32l-.04-.19.63-.13Z"/>
    <path class="cls-8" d="m813.95,91.91c.03,12.53-9.21,21.78-21.75,21.77-11.86-.01-21.36-9.63-21.54-21.84-.17-11.23,9.98-21.31,21.61-21.45,11.94-.14,21.65,9.49,21.68,21.52Z"/>
    <path class="cls-5" d="m765.63,156.72c-9.9,0-17.47-7.46-17.43-17.17.04-9.27,7.8-16.93,17.26-17.04,9.89-.12,17.54,7.96,17.35,18.3-.17,9.1-7.53,15.91-17.18,15.9Z"/>
    <path class="cls-4" d="m786.08,190.54c-.01,8.33-6.52,14.81-14.77,14.72-8.03-.09-14.4-6.6-14.36-14.66.04-8.38,6.38-14.72,14.76-14.77,7.74-.05,14.38,6.76,14.37,14.71Z"/>
    <path class="cls-7" d="m815.41,220.5c-6.85,0-12.57-5.71-12.61-12.57-.03-6.81,5.71-12.6,12.56-12.65,6.62-.05,12.69,5.97,12.68,12.6,0,6.77-5.87,12.63-12.64,12.62Z"/>
    <path class="cls-3" d="m857.85,181.77c5.8.05,10.8,5.23,10.71,11.1-.08,5.63-5.2,10.6-10.79,10.48-5.82-.12-10.98-5.38-10.82-11.04.15-5.46,5.45-10.58,10.9-10.53Z"/>
    <path class="cls-6" d="m877.79,150.35c4.8-.11,8.83,3.81,8.99,8.76.16,4.83-3.72,9.03-8.51,9.22-4.99.19-9.15-3.85-9.21-8.98-.06-4.89,3.82-8.89,8.73-9.01Z"/>
    <path class="cls-2" d="m111.34,116.39c-3.82-6.89-9.32-12.24-16.5-16.06-7.19-3.81-15.7-5.72-25.53-5.72H1.5v138.42h28.19v-46.88h39.62c9.83,0,18.34-1.94,25.53-5.81,7.18-3.88,12.68-9.23,16.5-16.06,3.81-6.83,5.71-14.79,5.71-23.9s-1.9-17.1-5.71-23.99Zm-28.19,38.57c-3.7,3.57-8.81,5.35-15.33,5.35H29.69v-39.86h38.13c6.52,0,11.63,1.75,15.33,5.26s5.56,8.4,5.56,14.67-1.86,11.01-5.56,14.58Z"/>
    <path class="cls-1" d="m234.35,147.62c-4.92-8.31-11.8-14.77-20.64-19.38-8.85-4.61-19.12-6.92-30.84-6.92s-21.99,2.31-30.83,6.92c-8.85,4.61-15.75,11.07-20.73,19.38-4.97,8.3-7.46,17.99-7.46,29.06s2.49,20.58,7.46,28.89c4.98,8.3,11.88,14.76,20.73,19.37,8.84,4.62,19.12,6.93,30.83,6.93s21.99-2.31,30.84-6.93c8.84-4.61,15.72-11.07,20.64-19.37,4.92-8.31,7.38-17.93,7.38-28.89s-2.46-20.76-7.38-29.06Zm-24.37,45.95c-2.49,4.74-6.03,8.4-10.61,10.98-4.59,2.59-10.09,3.88-16.5,3.88s-11.77-1.29-16.41-3.88c-4.64-2.58-8.21-6.24-10.69-10.98-2.49-4.73-3.73-10.36-3.73-16.89s1.24-12.33,3.73-17.07c2.48-4.73,6.05-8.39,10.69-10.98,4.64-2.58,10.11-3.87,16.41-3.87s11.91,1.29,16.5,3.87c4.58,2.59,8.12,6.25,10.61,10.98,2.49,4.74,3.73,10.43,3.73,17.07s-1.24,12.16-3.73,16.89Z"/>
    <path class="cls-1" d="m421.9,201.96v24c-3.21,1.47-7.46,2.86-12.77,4.15-5.3,1.29-10.77,1.94-16.41,1.94-9.84,0-17.82-1.76-23.96-5.26-6.13-3.51-10.66-8.4-13.59-14.68-2.93-6.27-4.4-13.59-4.4-21.96v-42.63h-19.72v-13.66l19.72-7.19,11.78-30.09h15.91v27.69h41.78v23.25h-41.78v38.2c0,8.12,1.52,13.82,4.56,17.07,3.04,3.27,8.32,4.89,15.83,4.89,4.75,0,8.96-.49,12.6-1.47,3.65-.98,7.13-2.4,10.45-4.25Z"/>
    <path d="m569.74,233.36c-11.87,0-22.29-2.34-31.25-7.01-8.96-4.68-15.96-11.22-21-19.64-5.04-8.42-7.56-18.17-7.56-29.27s2.52-21.04,7.56-29.46c5.04-8.42,12.04-14.96,21-19.64,8.96-4.68,19.38-7.01,31.25-7.01s22.29,2.34,31.25,7.01c8.96,4.68,15.93,11.22,20.92,19.64,4.98,8.42,7.48,18.24,7.48,29.46s-2.49,20.85-7.48,29.27c-4.99,8.42-11.96,14.96-20.92,19.64-8.96,4.68-19.38,7.01-31.25,7.01Zm0-23.75c6.5,0,12.07-1.31,16.72-3.93,4.65-2.62,8.23-6.33,10.75-11.13,2.52-4.8,3.78-10.5,3.78-17.11s-1.26-12.5-3.78-17.3c-2.52-4.8-6.11-8.51-10.75-11.13-4.65-2.62-10.22-3.93-16.72-3.93s-11.93,1.31-16.63,3.93c-4.7,2.62-8.32,6.33-10.84,11.13-2.52,4.8-3.78,10.57-3.78,17.3s1.26,12.31,3.78,17.11c2.52,4.8,6.13,8.51,10.84,11.13,4.7,2.62,10.25,3.93,16.63,3.93Z"/>
    <path d="m707.01,117.71c-4.97,0-9.04-1.44-12.19-4.34-3.15-2.89-4.72-6.74-4.72-11.53s1.58-8.83,4.72-11.72c3.15-2.89,7.21-4.34,12.19-4.34s9.17,1.45,12.27,4.34c3.09,2.89,4.64,6.8,4.64,11.72s-1.55,8.65-4.64,11.53c-3.1,2.89-7.19,4.34-12.27,4.34Zm-13.76,10.89l13.76,2.95,13.93-2.95v104.05c0,1.14-.93,2.07-2.07,2.07h-23.45c-1.2,0-2.17-.97-2.17-2.17v-103.95Z"/>
    <g>
      <path class="cls-1" d="m287.54,268.96c-.03-32.78.02-65.55-.05-98.33-.01-5.59.62-11.03,2.06-16.41,3.09-11.49,10.16-17.54,22.08-18.18,4.25-.23,5.83-1.7,5.58-5.94-.29-4.92-.12-9.87-.08-14.81.02-2.59-1.05-3.85-3.75-3.82-15.41.17-28.78,4.87-38.78,17.24-9.79,12.11-12.12,26.59-12.27,41.38-.35,33.37-.11,66.75-.13,100.13,0,1.89.22,3.51,1.4,4.37h22.61c1.48-1.18,1.33-3.37,1.33-5.63Z"/>
      <path d="m313.27,320.09c.29.03.58.06.86.1v-.1h-.86Zm-15.61,0c1.77.01,3.55.05,5.32.11,1.65.06,3.31-.03,4.97-.11h-10.29Zm-56,0c6.91,0,13.83.11,20.74,0h-20.74Zm-4.43,0v.17c1.03-.15,2.08-.17,3.13-.17h-3.13Z"/>
      <path d="m313.27,320.09c.29.03.58.06.86.1v-.1h-.86Zm-5.32,0h5.32c-1.76-.15-3.54-.08-5.32,0Zm-4.97.11c1.65.06,3.31-.03,4.97-.11h-10.29c1.77.01,3.55.05,5.32.11Zm-12.9-.11h7.58c-2.52-.03-5.05-.02-7.58,0Zm-27.68,0h4.57c-.64-.04-1.29-.05-1.96-.04-.87.02-1.74.04-2.61.04Zm0,0h-20.74c6.91,0,13.83.11,20.74,0Zm-25.17.17c1.03-.15,2.08-.17,3.13-.17h-3.13v.17Z"/>
      <path d="m266.97,320.09h-4.57c.87,0,1.74-.02,2.61-.04.67-.01,1.32,0,1.96.04Z"/>
      <path d="m297.66,320.09h-7.58c2.53-.02,5.06-.03,7.58,0Z"/>
      <path d="m313.27,320.09h-5.32c1.78-.08,3.56-.15,5.32,0Z"/>
    </g>
    <path d="m880.57,93.16c0-3.46-1.36-6.9-4.03-9.47-5.53-5.32-14.45-4.71-19.2,1.33-5.91,7.51-11.82,15.04-17.73,22.55-.32-.32-1.9-1.84-3.84-1.56-1.31.19-2.07,1.11-3.41,2.75-1.42,1.73-2.25,2.72-2.14,4.11.16,2.04,2.23,3.26,2.59,3.47-5.51,6.86-11.01,13.72-16.52,20.59-.18.26-.39.61-.57,1.07-.16.44-.25.83-.27,1.13-.26,4.57-.5,9.15-.76,13.72-3.07,3.9-6.14,7.79-9.2,11.68-1.33,2.71-.85,5.88,1.11,7.82,2.26,2.2,5.37,1.73,5.72,1.66,2.57-2.13,5.4-4.77,8.22-8.02,1.74-2.02,3.26-3.99,4.56-5.85,2.09-.56,4.56-1.39,7.19-2.68,1.61-.79,3.03-1.63,4.25-2.45l17.55-22.9.73.71c1.53,1.48,4.16,1.05,5.06-1.09.49-1.19,1.4-2.12,2.35-2.98,1.78-1.61,1.37-4.58-1.08-5.56-.08-.31-.1-.37-.18-.68,5.6-7.08,11.18-14.15,16.77-21.22,1.9-2.4,2.83-5.28,2.83-8.13Zm-45.1,58.35l-18.55,3.04,2.49-14.54,15.9-21.54,15.79,12.15-15.62,20.88Z"/>
    <path d="m319.16,315.38h-1.18c.19-.03.39-.04.59-.04s.4.01.59.04Z"/>
    <path d="m319.86,325.36c-.41.11-.84.17-1.29.17s-.88-.06-1.29-.17h2.58Z"/>
    <path d="m233.43,315.38h-1.18c.19-.03.39-.04.59-.04s.4.01.59.04Z"/>
    <path d="m234.12,325.36c-.41.11-.84.17-1.28.17s-.88-.06-1.29-.17h2.57Z"/>
    <path d="m825.67,233.6c-28.66,4.17-54.15-3.91-76.18-22.84-4.34-3.73-8.35-7.72-11.73-12.3-.87-1.18-2.99-2.67-1.1-4.12,1.62-1.24,2.53,1.04,3.34,2.07,6.64,8.45,14.53,15.54,23.7,21.05,27.28,16.36,55.95,18.8,85.11,6.23,30.85-13.29,49.15-37.53,54.1-70.46,7.83-52.03-28.81-98.24-79.91-104.43-4.99-.6-9.96-.87-14.95-.68l-7.82,1.62-.63.13.04.19.59,2.88-10.67,2.2-.63-3.06-42.95,8.87v.07c0,3.89-3.15,7.04-7.04,7.04-2.97,0-5.51-1.84-6.54-4.43-.32-.81-.5-1.69-.5-2.61,0-2.4,1.2-4.52,3.04-5.78,1.14-.8,2.52-1.26,4-1.26,1.92,0,3.65.77,4.92,2.02.21.2.4.41.58.64l43.58-9-.27-1.31-.55-2.65,10.67-2.2.6,2.89.22,1.07,44.97-9.29c-.01-.09-.01-.17-.01-.26v-.09c.05-3.84,3.18-6.95,7.04-6.95s7.03,3.16,7.03,7.04-3.15,7.04-7.03,7.04c-2.16,0-4.09-.97-5.38-2.5l-24.02,4.96c31.67,4.24,56.32,18.65,72.51,46.08,34.52,58.49-.92,132.35-68.13,142.13Z"/>
    <path d="m601.45,15.38c-.25-1.01-.55-2.03-.98-2.97-3.41-7.39-9.65-10.78-17.33-11.88-12.69-1.82-24.45,1.1-35.11,7.94-15.5,9.93-26.31,24.24-35.76,39.66-11.9,19.44-21.67,39.98-30.56,60.94-.75,1.77-1.54,3.23-2.7,4.17h-25.66v5.17h23.6c.23.8-.28,2.18-1.23,4.56-10.29,25.86-20.4,51.79-30.92,77.55-8.76,21.46-16.71,43.3-28.03,63.63-16.87,30.28-40.63,53.37-72.13,68.23-11.69,5.51-23.9,8.46-36.95,7.69-5.6-.33-9.37-1.59-11.49-2.37-7.82-2.85-13.05-7.55-15.9-10.55-.49-.59-.99-1.18-1.48-1.76.53-.01,1.05-.02,1.58-.03v-3.27h9.64c2.53-.02,5.06-.03,7.58,0h10.29c1.78-.08,3.56-.15,5.32,0h.52c.09.28.21.54.34.79.67,1.22,1.82,2.13,3.19,2.48h2.58c2.18-.56,3.8-2.56,3.8-4.93,0-2.61-1.97-4.76-4.5-5.05h-1.18c-1.68.19-3.11,1.19-3.89,2.6-.11.22-.21.44-.29.67h-33.4v-3.27h-2.25c.15-.74.45-1.61.89-2.61,1.77-4.03,3.58-8.06,5.42-12.06.66-1.43,1.3-2.87,1.97-4.29,1.15-2.43,1.14-4.44-.69-6.58-2.17-2.53-3.51-5.57-4.24-8.82-.41-1.83-.17-2.69.32-3.12.43-.38.96-.3,2-.44.8-.11,1.86-.35,3.09-.88h-23.97c.64.29,1.67.67,2.99.84,1.25.17,1.91.03,2.38.48.56.54.51,1.55.19,2.97-.71,3.13-1.85,6.1-3.87,8.5-2.31,2.74-2.13,5.13-.56,8.14.55,1.06,1.07,2.13,1.59,3.2,1.97,4.03,3.78,8.16,5.6,12.27.41.92.71,1.71.89,2.4h-1.73v3.27h-32.82c-.1-.3-.24-.59-.41-.86-.79-1.31-2.16-2.23-3.76-2.41h-1.18c-2.54.29-4.51,2.44-4.51,5.05,0,2.37,1.62,4.37,3.81,4.93h2.57c1.3-.33,2.4-1.17,3.07-2.29.19-.3.34-.63.46-.98h24.71c.87,0,1.74-.02,2.61-.04.67-.01,1.32,0,1.96.04h3.49v3.27h6.96c.43.72,1.13,1.8,2.1,3.04,4.33,5.53,9.56,8.25,12.4,9.7,2.91,1.48,5.3,2.29,6.27,2.6,3.64,1.16,7.49,1.81,11.81,1.98,22.32.89,43.33-4.45,63.06-14.8,31.77-16.67,53.25-42.7,66.85-75.32,18.08-43.36,35.54-86.98,53.11-130.55.66-1.62,1.38-2.81,2.36-3.6h31.62v-5.17h-29.85c-.15-.71.25-1.86,1.03-3.72,9.07-21.5,18.19-43,29.62-63.4,6.59-11.78,13.75-23.15,23.6-32.6,8.99-8.64,19.58-12.44,31.96-10.9,8.64,1.07,14.42,5.93,17.94,14.01.07-.42.28-.87.19-1.25Zm-324.85,285.33c-.01-.96.04-1.91.22-2.86h.01c1.57-.67,2.67-2.22,2.67-4.03,0-2.41-1.96-4.37-4.37-4.37s-4.36,1.96-4.36,4.37c0,1.78,1.07,3.32,2.6,4,.2.96.28,1.92.28,2.89.02,2.88-.58,5.83-.68,8.8-1.35-2.94-2.7-5.87-4.04-8.8-.81-1.76-1.61-3.52-2.43-5.28-.72-1.55-.32-2.89.59-4.19,2.25-3.23,3.77-6.77,4.47-10.65.35-1.92,1.17-3.29,3.49-3.33,2.41-.04,2.87,1.43,3.35,3.33.62,2.44,1.01,5.28,2.52,7.1,3.76,4.5,2.85,8.6.39,13.02-.07.12-.14.24-.21.37-1.39,2.43-2.37,5.11-3.54,7.67-.33-2.71-.92-5.4-.96-8.04Z"/>
  </g>
</svg>